ISO-10303-21;
HEADER;
FILE_DESCRIPTION (( 'STEP AP214' ),
    '1' );
FILE_NAME ('TLLR4400.STEP',
    '2025-02-10T06:23:11',
    ( 'LENOVO' ),
    ( '' ),
    'SwSTEP 2.0',
    'SolidWorks 2021',
    '' );
FILE_SCHEMA (( 'AUTOMOTIVE_DESIGN' ));
ENDSEC;

DATA;
#1 = CARTESIAN_POINT ( 'NONE',  ( 1.520000000000003348, -27.29999999999999716, 0.2000000000000000111 ) ) ;
#2 = B_SPLINE_CURVE_WITH_KNOTS ( 'NONE', 3,
 ( #261, #414, #721, #891 ),
 .UNSPECIFIED., .F., .F.,
 ( 4, 4 ),
 ( -7.615773107090845087E-06, 0.0003803520559636310613 ),
 .UNSPECIFIED. ) ;
#3 = EDGE_CURVE ( 'NONE', #528, #113, #217, .T. ) ;
#4 = PLANE ( 'NONE',  #251 ) ;
#5 = FACE_OUTER_BOUND ( 'NONE', #519, .T. ) ;
#6 =( GEOMETRIC_REPRESENTATION_CONTEXT ( 3 ) GLOBAL_UNCERTAINTY_ASSIGNED_CONTEXT ( ( #798 ) ) GLOBAL_UNIT_ASSIGNED_CONTEXT ( ( #813, #894, #986 ) ) REPRESENTATION_CONTEXT ( 'NONE', 'WORKASPACE' ) );
#7 = CARTESIAN_POINT ( 'NONE',  ( 1.020000000000000018, 0.5000000000000007772, 0.2000000000000000111 ) ) ;
#8 = LINE ( 'NONE', #389, #355 ) ;
#9 = DIRECTION ( 'NONE',  ( -1.000000000000000000, -1.446154496718704487E-16, 0.000000000000000000 ) ) ;
#10 = AXIS2_PLACEMENT_3D ( 'NONE', #959, #1020, #572 ) ;
#11 = LINE ( 'NONE', #91, #23 ) ;
#12 = EDGE_CURVE ( 'NONE', #599, #402, #559, .T. ) ;
#13 = CARTESIAN_POINT ( 'NONE',  ( -1.449999999999999956, 2.549999999999999822, 0.000000000000000000 ) ) ;
#14 = TOROIDAL_SURFACE ( 'NONE', #369, 0.05000000000000012768, 1.399999999999999911 ) ;
#15 = FILL_AREA_STYLE_COLOUR ( '', #549 ) ;
#16 = DIRECTION ( 'NONE',  ( -1.204219087029993407E-16, 1.000000000000000000, -0.000000000000000000 ) ) ;
#17 = FACE_OUTER_BOUND ( 'NONE', #199, .T. ) ;
#18 = DIRECTION ( 'NONE',  ( 0.000000000000000000, 1.000000000000000000, 0.000000000000000000 ) ) ;
#19 = CARTESIAN_POINT ( 'NONE',  ( 1.450000000000000178, 6.099999999999999645, 1.775737858763662163E-16 ) ) ;
#20 = CIRCLE ( 'NONE', #999, 1.600000000000000311 ) ;
#21 = LINE ( 'NONE', #711, #696 ) ;
#22 = AXIS2_PLACEMENT_3D ( 'NONE', #310, #82, #485 ) ;
#23 = VECTOR ( 'NONE', #338, 1000.000000000000000 ) ;
#24 = EDGE_CURVE ( 'NONE', #747, #810, #208, .T. ) ;
#25 = DIRECTION ( 'NONE',  ( -1.000000000000000000, -1.355252715606880543E-16, 0.000000000000000000 ) ) ;
#26 = DIRECTION ( 'NONE',  ( 1.000000000000000000, 0.000000000000000000, -0.000000000000000000 ) ) ;
#27 = FACE_OUTER_BOUND ( 'NONE', #898, .T. ) ;
#28 =( NAMED_UNIT ( * ) SI_UNIT ( $, .STERADIAN. ) SOLID_ANGLE_UNIT ( ) );
#29 = SURFACE_STYLE_FILL_AREA ( #126 ) ;
#30 = CARTESIAN_POINT ( 'NONE',  ( -0.5200000000000000178, 1.399999999999998579, -0.2000000000000000111 ) ) ;
#31 = CYLINDRICAL_SURFACE ( 'NONE', #283, 1.600000000000000311 ) ;
#32 = EDGE_CURVE ( 'NONE', #575, #963, #899, .T. ) ;
#33 = CARTESIAN_POINT ( 'NONE',  ( -0.05000000000000012768, 6.099999999999999645, 9.184850993605141042E-17 ) ) ;
#34 = LINE ( 'NONE', #268, #83 ) ;
#35 = CARTESIAN_POINT ( 'NONE',  ( 1.020000000000000018, 0.000000000000000000, 0.2000000000000000111 ) ) ;
#36 = LINE ( 'NONE', #826, #716 ) ;
#37 = FILL_AREA_STYLE ('',( #106 ) ) ;
#38 = ADVANCED_FACE ( 'NONE', ( #552 ), #457, .F. ) ;
#39 = VECTOR ( 'NONE', #490, 1000.000000000000000 ) ;
#40 = ORIENTED_EDGE ( 'NONE', *, *, #614, .F. ) ;
#41 = ORIENTED_EDGE ( 'NONE', *, *, #719, .F. ) ;
#42 = EDGE_CURVE ( 'NONE', #127, #132, #489, .T. ) ;
#43 = ORIENTED_EDGE ( 'NONE', *, *, #795, .F. ) ;
#44 = DIRECTION ( 'NONE',  ( -1.000000000000000000, -1.355252715606880543E-16, 0.000000000000000000 ) ) ;
#45 = EDGE_CURVE ( 'NONE', #584, #575, #571, .T. ) ;
#46 = ORIENTED_EDGE ( 'NONE', *, *, #103, .F. ) ;
#47 = EDGE_LOOP ( 'NONE', ( #184, #854, #547, #43 ) ) ;
#48 = DIRECTION ( 'NONE',  ( -0.000000000000000000, -0.000000000000000000, -1.000000000000000000 ) ) ;
#49 = VERTEX_POINT ( 'NONE', #424 ) ;
#50 = LINE ( 'NONE', #354, #427 ) ;
#51 = ORIENTED_EDGE ( 'NONE', *, *, #735, .F. ) ;
#52 = VECTOR ( 'NONE', #275, 1000.000000000000000 ) ;
#53 = AXIS2_PLACEMENT_3D ( 'NONE', #980, #378, #249 ) ;
#54 = ORIENTED_EDGE ( 'NONE', *, *, #659, .F. ) ;
#55 = CARTESIAN_POINT ( 'NONE',  ( 1.020000000000000018, 1.399999999999998579, 0.2000000000000000111 ) ) ;
#56 = VECTOR ( 'NONE', #935, 1000.000000000000000 ) ;
#57 = VERTEX_POINT ( 'NONE', #509 ) ;
#58 = EDGE_CURVE ( 'NONE', #74, #970, #215, .T. ) ;
#59 = LINE ( 'NONE', #198, #429 ) ;
#60 = ORIENTED_EDGE ( 'NONE', *, *, #821, .T. ) ;
#61 = COLOUR_RGB ( '',0.7921568627450980005, 0.8196078431372548767, 0.9333333333333333481 ) ;
#62 = ORIENTED_EDGE ( 'NONE', *, *, #957, .F. ) ;
#63 = FACE_OUTER_BOUND ( 'NONE', #116, .T. ) ;
#64 = CARTESIAN_POINT ( 'NONE',  ( 0.5200000000000001288, 1.273632671113247474E-16, 0.2000000000000000111 ) ) ;
#65 = DIRECTION ( 'NONE',  ( -1.204219087029993407E-16, 1.000000000000000000, -0.000000000000000000 ) ) ;
#66 = PRESENTATION_STYLE_ASSIGNMENT (( #351 ) ) ;
#67 = AXIS2_PLACEMENT_3D ( 'NONE', #926, #118, #748 ) ;
#68 = ORIENTED_EDGE ( 'NONE', *, *, #623, .F. ) ;
#69 = FACE_OUTER_BOUND ( 'NONE', #536, .T. ) ;
#70 = DIRECTION ( 'NONE',  ( 0.000000000000000000, 1.000000000000000000, 0.000000000000000000 ) ) ;
#71 = ORIENTED_EDGE ( 'NONE', *, *, #189, .T. ) ;
#72 = FACE_OUTER_BOUND ( 'NONE', #752, .T. ) ;
#73 = MECHANICAL_DESIGN_GEOMETRIC_PRESENTATION_REPRESENTATION (  '', ( #910 ), #336 ) ;
#74 = VERTEX_POINT ( 'NONE', #250 ) ;
#75 = DIRECTION ( 'NONE',  ( 0.000000000000000000, 0.000000000000000000, -1.000000000000000000 ) ) ;
#76 = EDGE_CURVE ( 'NONE', #57, #835, #915, .T. ) ;
#77 = DIRECTION ( 'NONE',  ( -0.000000000000000000, -0.000000000000000000, -1.000000000000000000 ) ) ;
#78 = ORIENTED_EDGE ( 'NONE', *, *, #416, .F. ) ;
#79 = DIRECTION ( 'NONE',  ( 0.000000000000000000, -0.000000000000000000, -1.000000000000000000 ) ) ;
#80 = ORIENTED_EDGE ( 'NONE', *, *, #709, .T. ) ;
#81 = DIRECTION ( 'NONE',  ( 1.204219087029993407E-16, -1.000000000000000000, 0.000000000000000000 ) ) ;
#82 = DIRECTION ( 'NONE',  ( -1.000000000000000000, 7.899499243026090007E-18, 0.000000000000000000 ) ) ;
#83 = VECTOR ( 'NONE', #288, 1000.000000000000000 ) ;
#84 = CARTESIAN_POINT ( 'NONE',  ( 1.020000000000000018, 0.5000000000000007772, -0.2000000000000000111 ) ) ;
#85 = ORIENTED_EDGE ( 'NONE', *, *, #503, .T. ) ;
#86 = CARTESIAN_POINT ( 'NONE',  ( -1.449999999999999956, 1.399999999999998801, 0.000000000000000000 ) ) ;
#87 = CARTESIAN_POINT ( 'NONE',  ( 1.450000000000000178, 2.576391312223690555, 0.1271493894541978198 ) ) ;
#88 = EDGE_CURVE ( 'NONE', #584, #405, #567, .T. ) ;
#89 = CIRCLE ( 'NONE', #620, 1.600000000000000089 ) ;
#90 = VECTOR ( 'NONE', #610, 1000.000000000000000 ) ;
#91 = CARTESIAN_POINT ( 'NONE',  ( 0.5200000000000000178, 1.399999999999998579, 0.2000000000000000111 ) ) ;
#92 = LINE ( 'NONE', #465, #96 ) ;
#93 = VERTEX_POINT ( 'NONE', #177 ) ;
#94 = CARTESIAN_POINT ( 'NONE',  ( -1.449999999999999734, 2.600000000000000089, 0.000000000000000000 ) ) ;
#95 = CARTESIAN_POINT ( 'NONE',  ( 4.310777051556566678E-16, 2.600000000000000089, 0.000000000000000000 ) ) ;
#96 = VECTOR ( 'NONE', #626, 1000.000000000000000 ) ;
#97 = ORIENTED_EDGE ( 'NONE', *, *, #311, .T. ) ;
#98 = DIRECTION ( 'NONE',  ( 1.204669080539449344E-16, -1.000000000000000000, 0.000000000000000000 ) ) ;
#99 = CARTESIAN_POINT ( 'NONE',  ( -1.020000000000000018, -7.230772483593523670E-17, -0.2000000000000000111 ) ) ;
#100 = EDGE_LOOP ( 'NONE', ( #790, #120, #534, #772 ) ) ;
#101 = DIRECTION ( 'NONE',  ( -1.204219087029993407E-16, 1.000000000000000000, -0.000000000000000000 ) ) ;
#102 = CARTESIAN_POINT ( 'NONE',  ( 0.000000000000000000, 0.000000000000000000, -0.2000000000000000111 ) ) ;
#103 = EDGE_CURVE ( 'NONE', #522, #127, #228, .T. ) ;
#104 = DIRECTION ( 'NONE',  ( 0.000000000000000000, 0.000000000000000000, -1.000000000000000000 ) ) ;
#105 = EDGE_LOOP ( 'NONE', ( #219, #474, #187, #513, #530, #570, #453, #470 ) ) ;
#106 = FILL_AREA_STYLE_COLOUR ( '', #61 ) ;
#107 = DIRECTION ( 'NONE',  ( -1.000000000000000000, -2.168404344971007882E-16, -0.000000000000000000 ) ) ;
#108 = CARTESIAN_POINT ( 'NONE',  ( -0.5199999999999999067, 0.000000000000000000, 0.2000000000000000111 ) ) ;
#109 = ORIENTED_EDGE ( 'NONE', *, *, #170, .F. ) ;
#110 = CARTESIAN_POINT ( 'NONE',  ( -1.020000000000000018, 1.399999999999998579, -0.2000000000000000111 ) ) ;
#111 = ADVANCED_FACE ( 'NONE', ( #581 ), #115, .F. ) ;
#112 = AXIS2_PLACEMENT_3D ( 'NONE', #858, #313, #577 ) ;
#113 = VERTEX_POINT ( 'NONE', #645 ) ;
#114 = CARTESIAN_POINT ( 'NONE',  ( 1.520000000000003570, 0.1498962308951448386, -0.2000000000000000111 ) ) ;
#115 = PLANE ( 'NONE',  #299 ) ;
#116 = EDGE_LOOP ( 'NONE', ( #169, #236, #591, #601 ) ) ;
#117 = DIRECTION ( 'NONE',  ( -0.000000000000000000, -0.000000000000000000, -1.000000000000000000 ) ) ;
#118 = DIRECTION ( 'NONE',  ( 1.000000000000000000, 1.258118561928571872E-16, -0.000000000000000000 ) ) ;
#119 = VERTEX_POINT ( 'NONE', #918 ) ;
#120 = ORIENTED_EDGE ( 'NONE', *, *, #892, .F. ) ;
#121 = DIRECTION ( 'NONE',  ( -1.204219087029993407E-16, 1.000000000000000000, -0.000000000000000000 ) ) ;
#122 = ORIENTED_EDGE ( 'NONE', *, *, #290, .T. ) ;
#123 = EDGE_LOOP ( 'NONE', ( #379, #838, #861, #746 ) ) ;
#124 = CARTESIAN_POINT ( 'NONE',  ( -1.020000000000000018, 0.5000000000000005551, 0.2000000000000000111 ) ) ;
#125 = EDGE_CURVE ( 'NONE', #127, #804, #927, .T. ) ;
#126 = FILL_AREA_STYLE ('',( #292 ) ) ;
#127 = VERTEX_POINT ( 'NONE', #191 ) ;
#128 = ORIENTED_EDGE ( 'NONE', *, *, #362, .T. ) ;
#129 = DIRECTION ( 'NONE',  ( -1.000000000000000000, 0.000000000000000000, 0.000000000000000000 ) ) ;
#130 = ORIENTED_EDGE ( 'NONE', *, *, #370, .T. ) ;
#131 = EDGE_LOOP ( 'NONE', ( #615, #966, #508, #408 ) ) ;
#132 = VERTEX_POINT ( 'NONE', #580 ) ;
#133 = DIRECTION ( 'NONE',  ( -0.000000000000000000, -0.000000000000000000, -1.000000000000000000 ) ) ;
#134 = ADVANCED_FACE ( 'NONE', ( #605 ), #252, .T. ) ;
#135 = EDGE_CURVE ( 'NONE', #149, #528, #951, .T. ) ;
#136 = DIRECTION ( 'NONE',  ( -1.000000000000000000, 0.000000000000000000, 0.000000000000000000 ) ) ;
#137 = PLANE ( 'NONE',  #452 ) ;
#138 = AXIS2_PLACEMENT_3D ( 'NONE', #860, #958, #212 ) ;
#139 = CARTESIAN_POINT ( 'NONE',  ( 1.449999999999999956, 2.549999999999999822, -0.3840572873934319231 ) ) ;
#140 = CARTESIAN_POINT ( 'NONE',  ( 1.020000000000003348, -27.29999999999999716, -0.2000000000000000111 ) ) ;
#141 = AXIS2_PLACEMENT_3D ( 'NONE', #848, #224, #368 ) ;
#142 = PLANE ( 'NONE',  #141 ) ;
#143 = DIRECTION ( 'NONE',  ( 0.000000000000000000, -1.000000000000000000, 0.000000000000000000 ) ) ;
#144 = ADVANCED_FACE ( 'NONE', ( #600 ), #343, .T. ) ;
#145 =( LENGTH_UNIT ( ) NAMED_UNIT ( * ) SI_UNIT ( .MILLI., .METRE. ) );
#146 = EDGE_LOOP ( 'NONE', ( #901, #523, #216, #794 ) ) ;
#147 = CARTESIAN_POINT ( 'NONE',  ( 1.520000000000003570, 0.1498962308951448386, -0.2000000000000000111 ) ) ;
#148 = DIRECTION ( 'NONE',  ( -1.204219087029993407E-16, 1.000000000000000000, -0.000000000000000000 ) ) ;
#149 = VERTEX_POINT ( 'NONE', #394 ) ;
#150 = PRODUCT_CONTEXT ( 'NONE', #662, 'mechanical' ) ;
#151 = CARTESIAN_POINT ( 'NONE',  ( -1.449999999999999734, 2.576395696266148061, 0.1271257782990621310 ) ) ;
#152 = ORIENTED_EDGE ( 'NONE', *, *, #327, .T. ) ;
#153 = AXIS2_PLACEMENT_3D ( 'NONE', #754, #176, #329 ) ;
#154 = ORIENTED_EDGE ( 'NONE', *, *, #320, .F. ) ;
#155 = DIRECTION ( 'NONE',  ( 1.000000000000000000, 1.204219087029993407E-16, 0.000000000000000000 ) ) ;
#156 = ORIENTED_EDGE ( 'NONE', *, *, #24, .T. ) ;
#157 = ORIENTED_EDGE ( 'NONE', *, *, #88, .F. ) ;
#158 = APPLICATION_PROTOCOL_DEFINITION ( 'draft international standard', 'automotive_design', 1998, #788 ) ;
#159 = CARTESIAN_POINT ( 'NONE',  ( 1.020000000000003348, -27.29999999999999716, 0.2000000000000000111 ) ) ;
#160 = DIRECTION ( 'NONE',  ( 1.204219087029993407E-16, -1.000000000000000000, 0.000000000000000000 ) ) ;
#161 = ORIENTED_EDGE ( 'NONE', *, *, #506, .T. ) ;
#162 = ORIENTED_EDGE ( 'NONE', *, *, #991, .T. ) ;
#163 = CARTESIAN_POINT ( 'NONE',  ( 1.781916968793580942E-16, 4.699999999999999289, 0.000000000000000000 ) ) ;
#164 = ORIENTED_EDGE ( 'NONE', *, *, #103, .T. ) ;
#165 = CARTESIAN_POINT ( 'NONE',  ( 1.450000000000000400, 4.699999999999999289, 1.775737858763662163E-16 ) ) ;
#166 = VERTEX_POINT ( 'NONE', #483 ) ;
#167 = DIRECTION ( 'NONE',  ( 7.899499243026090007E-18, 1.000000000000000000, 0.000000000000000000 ) ) ;
#168 = CARTESIAN_POINT ( 'NONE',  ( 0.5200000000000001288, 1.273632671113247474E-16, 0.2000000000000000111 ) ) ;
#169 = ORIENTED_EDGE ( 'NONE', *, *, #482, .T. ) ;
#170 = EDGE_CURVE ( 'NONE', #750, #74, #952, .T. ) ;
#171 = VERTEX_POINT ( 'NONE', #269 ) ;
#172 = EDGE_CURVE ( 'NONE', #800, #907, #603, .T. ) ;
#173 = EDGE_LOOP ( 'NONE', ( #872, #890, #205, #731 ) ) ;
#174 = CARTESIAN_POINT ( 'NONE',  ( -1.449999999999999956, 10.00000000000000000, 0.6763874629234343239 ) ) ;
#175 = ORIENTED_EDGE ( 'NONE', *, *, #737, .T. ) ;
#176 = DIRECTION ( 'NONE',  ( -1.204219087029993407E-16, 1.000000000000000000, -0.000000000000000000 ) ) ;
#177 = CARTESIAN_POINT ( 'NONE',  ( -1.019999999999996687, -28.80000000000000071, 0.2000000000000000111 ) ) ;
#178 = ORIENTED_EDGE ( 'NONE', *, *, #623, .T. ) ;
#179 = ORIENTED_EDGE ( 'NONE', *, *, #399, .F. ) ;
#180 = ORIENTED_EDGE ( 'NONE', *, *, #556, .T. ) ;
#181 = ORIENTED_EDGE ( 'NONE', *, *, #42, .F. ) ;
#182 = CARTESIAN_POINT ( 'NONE',  ( 1.020000000000003348, -27.29999999999999716, 0.2000000000000000111 ) ) ;
#183 = EDGE_CURVE ( 'NONE', #467, #402, #900, .T. ) ;
#184 = ORIENTED_EDGE ( 'NONE', *, *, #76, .F. ) ;
#185 = ORIENTED_EDGE ( 'NONE', *, *, #3, .T. ) ;
#186 = B_SPLINE_CURVE_WITH_KNOTS ( 'NONE', 3,
 ( #833, #281, #512, #592 ),
 .UNSPECIFIED., .F., .F.,
 ( 4, 4 ),
 ( 0.0007395677422256633111, 0.001127463527164626394 ),
 .UNSPECIFIED. ) ;
#187 = ORIENTED_EDGE ( 'NONE', *, *, #709, .F. ) ;
#188 = DIRECTION ( 'NONE',  ( -1.000000000000000000, -0.000000000000000000, -0.000000000000000000 ) ) ;
#189 = EDGE_CURVE ( 'NONE', #807, #119, #233, .T. ) ;
#190 = DIRECTION ( 'NONE',  ( 0.000000000000000000, -0.000000000000000000, 1.000000000000000000 ) ) ;
#191 = CARTESIAN_POINT ( 'NONE',  ( 1.450000000000000178, 2.600000000000000089, 0.000000000000000000 ) ) ;
#192 = ORIENTED_EDGE ( 'NONE', *, *, #425, .T. ) ;
#193 = DIRECTION ( 'NONE',  ( -0.000000000000000000, -0.000000000000000000, -1.000000000000000000 ) ) ;
#194 = SURFACE_STYLE_USAGE ( .BOTH. , #285 ) ;
#195 = AXIS2_PLACEMENT_3D ( 'NONE', #1023, #143, #79 ) ;
#196 = ORIENTED_EDGE ( 'NONE', *, *, #766, .F. ) ;
#197 = AXIS2_PLACEMENT_3D ( 'NONE', #745, #330, #325 ) ;
#198 = CARTESIAN_POINT ( 'NONE',  ( 0.5200000000000001288, 1.273632671113247474E-16, -0.2000000000000000111 ) ) ;
#199 = EDGE_LOOP ( 'NONE', ( #180, #758, #742, #71 ) ) ;
#200 = ORIENTED_EDGE ( 'NONE', *, *, #694, .T. ) ;
#201 = SURFACE_SIDE_STYLE ('',( #749 ) ) ;
#202 = ORIENTED_EDGE ( 'NONE', *, *, #172, .F. ) ;
#203 = VERTEX_POINT ( 'NONE', #499 ) ;
#204 = CARTESIAN_POINT ( 'NONE',  ( -1.020000000000000018, 1.399999999999998579, 0.2000000000000000111 ) ) ;
#205 = ORIENTED_EDGE ( 'NONE', *, *, #306, .F. ) ;
#206 = LINE ( 'NONE', #1019, #569 ) ;
#207 = AXIS2_PLACEMENT_3D ( 'NONE', #884, #786, #9 ) ;
#208 = LINE ( 'NONE', #941, #544 ) ;
#209 = VECTOR ( 'NONE', #406, 1000.000000000000000 ) ;
#210 = ORIENTED_EDGE ( 'NONE', *, *, #259, .T. ) ;
#211 = ORIENTED_EDGE ( 'NONE', *, *, #135, .F. ) ;
#212 = DIRECTION ( 'NONE',  ( 0.000000000000000000, 0.000000000000000000, -1.000000000000000000 ) ) ;
#213 = VECTOR ( 'NONE', #133, 1000.000000000000000 ) ;
#214 = EDGE_LOOP ( 'NONE', ( #60, #619, #541, #537 ) ) ;
#215 = LINE ( 'NONE', #30, #924 ) ;
#216 = ORIENTED_EDGE ( 'NONE', *, *, #45, .F. ) ;
#217 = LINE ( 'NONE', #676, #555 ) ;
#218 = ORIENTED_EDGE ( 'NONE', *, *, #778, .F. ) ;
#219 = ORIENTED_EDGE ( 'NONE', *, *, #979, .F. ) ;
#220 = VECTOR ( 'NONE', #104, 1000.000000000000000 ) ;
#221 = CARTESIAN_POINT ( 'NONE',  ( 1.020000000000000018, 0.5000000000000007772, -0.2000000000000000111 ) ) ;
#222 = LINE ( 'NONE', #533, #585 ) ;
#223 = STYLED_ITEM ( 'NONE', ( #244 ), #331 ) ;
#224 = DIRECTION ( 'NONE',  ( 0.000000000000000000, 0.000000000000000000, 1.000000000000000000 ) ) ;
#225 = FACE_OUTER_BOUND ( 'NONE', #820, .T. ) ;
#226 = CARTESIAN_POINT ( 'NONE',  ( -0.5200000000000000178, 1.399999999999998579, 0.2000000000000000111 ) ) ;
#227 = VECTOR ( 'NONE', #525, 1000.000000000000000 ) ;
#228 = CIRCLE ( 'NONE', #360, 1.449999999999999956 ) ;
#229 = CARTESIAN_POINT ( 'NONE',  ( 1.020000000000000018, 0.000000000000000000, -0.2000000000000000111 ) ) ;
#230 = LINE ( 'NONE', #684, #558 ) ;
#231 = DIRECTION ( 'NONE',  ( -0.000000000000000000, -1.000000000000000000, -0.000000000000000000 ) ) ;
#232 = CARTESIAN_POINT ( 'NONE',  ( 1.020000000000000018, 0.000000000000000000, 0.2000000000000000111 ) ) ;
#233 = LINE ( 'NONE', #487, #893 ) ;
#234 = CLOSED_SHELL ( 'NONE', ( #815, #940, #844, #697, #529, #38, #974, #928, #856, #400, #373, #144, #755, #134 ) ) ;
#235 = VECTOR ( 'NONE', #193, 1000.000000000000000 ) ;
#236 = ORIENTED_EDGE ( 'NONE', *, *, #287, .F. ) ;
#237 = PLANE ( 'NONE',  #965 ) ;
#238 = DIRECTION ( 'NONE',  ( 0.000000000000000000, 0.000000000000000000, -1.000000000000000000 ) ) ;
#239 = EDGE_CURVE ( 'NONE', #171, #847, #921, .T. ) ;
#240 = LINE ( 'NONE', #501, #563 ) ;
#241 = LINE ( 'NONE', #845, #213 ) ;
#242 = CLOSED_SHELL ( 'NONE', ( #763, #439, #616, #1021, #661, #356, #950, #606, #651, #539 ) ) ;
#243 = CARTESIAN_POINT ( 'NONE',  ( -0.5200000000000000178, 1.399999999999998579, 0.2000000000000000111 ) ) ;
#244 = PRESENTATION_STYLE_ASSIGNMENT (( #326 ) ) ;
#245 = PLANE ( 'NONE',  #10 ) ;
#246 = ORIENTED_EDGE ( 'NONE', *, *, #556, .F. ) ;
#247 = VECTOR ( 'NONE', #727, 1000.000000000000000 ) ;
#248 = ORIENTED_EDGE ( 'NONE', *, *, #693, .T. ) ;
#249 = DIRECTION ( 'NONE',  ( -1.000000000000000000, 0.000000000000000000, -0.000000000000000000 ) ) ;
#250 = CARTESIAN_POINT ( 'NONE',  ( -0.5199999999999999067, 0.000000000000000000, -0.2000000000000000111 ) ) ;
#251 = AXIS2_PLACEMENT_3D ( 'NONE', #226, #971, #717 ) ;
#252 = TOROIDAL_SURFACE ( 'NONE', #877, 0.05000000000000012768, 1.399999999999999911 ) ;
#253 = EDGE_LOOP ( 'NONE', ( #179, #78, #51, #246, #511, #954, #41, #930 ) ) ;
#254 = DIRECTION ( 'NONE',  ( -1.000000000000000000, 0.000000000000000000, 0.000000000000000000 ) ) ;
#255 = EDGE_CURVE ( 'NONE', #510, #933, #222, .T. ) ;
#256 = CARTESIAN_POINT ( 'NONE',  ( -1.449999999999999956, 2.550000000000000266, -0.6763874629234343239 ) ) ;
#257 = CARTESIAN_POINT ( 'NONE',  ( 9.601024695159024502E-18, 6.099999999999999645, 0.000000000000000000 ) ) ;
#258 = DIRECTION ( 'NONE',  ( -1.000000000000000000, 0.000000000000000000, 0.000000000000000000 ) ) ;
#259 = EDGE_CURVE ( 'NONE', #963, #528, #206, .T. ) ;
#260 = ORIENTED_EDGE ( 'NONE', *, *, #183, .F. ) ;
#261 = CARTESIAN_POINT ( 'NONE',  ( -1.449999999999999734, 2.600000000000000089, 0.000000000000000000 ) ) ;
#262 = CARTESIAN_POINT ( 'NONE',  ( -0.04999999999999995420, 4.699999999999999289, 6.123233995736781751E-18 ) ) ;
#263 = STYLED_ITEM ( 'NONE', ( #66 ), #646 ) ;
#264 = VERTEX_POINT ( 'NONE', #35 ) ;
#265 = CARTESIAN_POINT ( 'NONE',  ( -1.019999999999996687, -28.80000000000000071, -0.2000000000000000111 ) ) ;
#266 = AXIS2_PLACEMENT_3D ( 'NONE', #102, #514, #929 ) ;
#267 = CARTESIAN_POINT ( 'NONE',  ( 0.000000000000000000, 0.000000000000000000, 0.000000000000000000 ) ) ;
#268 = CARTESIAN_POINT ( 'NONE',  ( 1.020000000000003348, -27.29999999999999716, 0.2000000000000000111 ) ) ;
#269 = CARTESIAN_POINT ( 'NONE',  ( 1.449999999999999956, 2.550000000000000266, -0.6763874629234346569 ) ) ;
#270 = ORIENTED_EDGE ( 'NONE', *, *, #979, .T. ) ;
#271 = CARTESIAN_POINT ( 'NONE',  ( 5.755839955992558669E-16, 1.399999999999999245, 0.000000000000000000 ) ) ;
#272 = ORIENTED_EDGE ( 'NONE', *, *, #319, .F. ) ;
#273 = FILL_AREA_STYLE ('',( #865 ) ) ;
#274 = EDGE_LOOP ( 'NONE', ( #270, #157, #532, #912 ) ) ;
#275 = DIRECTION ( 'NONE',  ( 0.000000000000000000, 0.000000000000000000, 1.000000000000000000 ) ) ;
#276 = EDGE_CURVE ( 'NONE', #166, #747, #594, .T. ) ;
#277 = CARTESIAN_POINT ( 'NONE',  ( -1.520000000000000240, 0.5000000000000004441, 0.2000000000000000111 ) ) ;
#278 = EDGE_LOOP ( 'NONE', ( #200, #967 ) ) ;
#279 = EDGE_CURVE ( 'NONE', #438, #869, #241, .T. ) ;
#280 =( NAMED_UNIT ( * ) PLANE_ANGLE_UNIT ( ) SI_UNIT ( $, .RADIAN. ) );
#281 = CARTESIAN_POINT ( 'NONE',  ( 1.449999999999999956, 2.550000000000000266, -0.2539593146721845773 ) ) ;
#282 = ORIENTED_EDGE ( 'NONE', *, *, #851, .T. ) ;
#283 = AXIS2_PLACEMENT_3D ( 'NONE', #444, #992, #995 ) ;
#284 = LINE ( 'NONE', #799, #982 ) ;
#285 = SURFACE_SIDE_STYLE ('',( #29 ) ) ;
#286 = FACE_OUTER_BOUND ( 'NONE', #723, .T. ) ;
#287 = EDGE_CURVE ( 'NONE', #627, #943, #554, .T. ) ;
#288 = DIRECTION ( 'NONE',  ( 1.000000000000000000, 0.000000000000000000, 0.000000000000000000 ) ) ;
#289 = SURFACE_STYLE_FILL_AREA ( #273 ) ;
#290 = EDGE_CURVE ( 'NONE', #750, #464, #937, .T. ) ;
#291 = LINE ( 'NONE', #86, #1003 ) ;
#292 = FILL_AREA_STYLE_COLOUR ( '', #710 ) ;
#293 = LINE ( 'NONE', #301, #640 ) ;
#294 = PRODUCT_DEFINITION ( 'UNKNOWN', '', #565, #889 ) ;
#295 = CARTESIAN_POINT ( 'NONE',  ( 1.020000000000003348, -27.29999999999999716, 0.2000000000000000111 ) ) ;
#296 = CARTESIAN_POINT ( 'NONE',  ( 0.5200000000000000178, 1.399999999999998579, -0.2000000000000000111 ) ) ;
#297 = VECTOR ( 'NONE', #650, 1000.000000000000000 ) ;
#298 = AXIS2_PLACEMENT_3D ( 'NONE', #204, #998, #674 ) ;
#299 = AXIS2_PLACEMENT_3D ( 'NONE', #981, #829, #811 ) ;
#300 = DIRECTION ( 'NONE',  ( -1.204669080539449344E-16, 1.000000000000000000, -0.000000000000000000 ) ) ;
#301 = CARTESIAN_POINT ( 'NONE',  ( 1.520000000000003348, -27.29999999999999716, -0.2000000000000000111 ) ) ;
#302 = AXIS2_PLACEMENT_3D ( 'NONE', #271, #449, #44 ) ;
#303 = CIRCLE ( 'NONE', #819, 1.450000000000000178 ) ;
#304 = DIRECTION ( 'NONE',  ( 1.191430958775279679E-16, -1.000000000000000000, 0.000000000000000000 ) ) ;
#305 = DIRECTION ( 'NONE',  ( -1.204219087029993407E-16, 1.000000000000000000, -0.000000000000000000 ) ) ;
#306 = EDGE_CURVE ( 'NONE', #171, #442, #230, .T. ) ;
#307 = FACE_OUTER_BOUND ( 'NONE', #462, .T. ) ;
#308 = CARTESIAN_POINT ( 'NONE',  ( 0.5200000000000000178, 1.399999999999998579, -0.2000000000000000111 ) ) ;
#309 = DIRECTION ( 'NONE',  ( -1.000000000000000000, 2.547265342226495440E-16, 0.000000000000000000 ) ) ;
#310 = CARTESIAN_POINT ( 'NONE',  ( 1.520000000000003348, -27.29999999999999716, 0.2000000000000000111 ) ) ;
#311 = EDGE_CURVE ( 'NONE', #852, #750, #590, .T. ) ;
#312 = CIRCLE ( 'NONE', #480, 1.399999999999999911 ) ;
#313 = DIRECTION ( 'NONE',  ( -0.5735764363510444941, -0.8191520442889929088, 0.000000000000000000 ) ) ;
#314 = LINE ( 'NONE', #942, #1008 ) ;
#315 = LINE ( 'NONE', #463, #1010 ) ;
#316 = CARTESIAN_POINT ( 'NONE',  ( 1.449999999999999956, 10.00000000000000000, 0.6763874629234346569 ) ) ;
#317 = VECTOR ( 'NONE', #568, 1000.000000000000000 ) ;
#318 = CARTESIAN_POINT ( 'NONE',  ( -1.519999999999996687, -28.80000000000000071, 0.2000000000000000111 ) ) ;
#319 = EDGE_CURVE ( 'NONE', #522, #49, #2, .T. ) ;
#320 = EDGE_CURVE ( 'NONE', #264, #466, #240, .T. ) ;
#321 = DIRECTION ( 'NONE',  ( -1.000000000000000000, 0.000000000000000000, -0.000000000000000000 ) ) ;
#322 = CARTESIAN_POINT ( 'NONE',  ( 1.449999999999999956, 10.00000000000000000, -0.6763874629234346569 ) ) ;
#323 = DIRECTION ( 'NONE',  ( 0.000000000000000000, 0.000000000000000000, 1.000000000000000000 ) ) ;
#324 = UNCERTAINTY_MEASURE_WITH_UNIT (LENGTH_MEASURE( 1.000000000000000082E-05 ), #968, 'distance_accuracy_value', 'NONE');
#325 = DIRECTION ( 'NONE',  ( 1.000000000000000000, 1.204219087029993407E-16, 0.000000000000000000 ) ) ;
#326 = SURFACE_STYLE_USAGE ( .BOTH. , #825 ) ;
#327 = EDGE_CURVE ( 'NONE', #903, #599, #564, .T. ) ;
#328 = DIRECTION ( 'NONE',  ( 1.000000000000000000, 0.000000000000000000, -1.224646799147353207E-16 ) ) ;
#329 = DIRECTION ( 'NONE',  ( 1.000000000000000000, 0.000000000000000000, 0.000000000000000000 ) ) ;
#330 = DIRECTION ( 'NONE',  ( 1.204219087029993407E-16, -1.000000000000000000, 0.000000000000000000 ) ) ;
#331 = MANIFOLD_SOLID_BREP ( 'Boss-Extrude1[1]', #242 ) ;
#332 = DIRECTION ( 'NONE',  ( 0.000000000000000000, 0.000000000000000000, 1.000000000000000000 ) ) ;
#333 = PLANE ( 'NONE',  #802 ) ;
#334 = CARTESIAN_POINT ( 'NONE',  ( 1.449999999999999956, 2.550000000000000266, 0.000000000000000000 ) ) ;
#335 = DIRECTION ( 'NONE',  ( -1.204219087029993407E-16, 1.000000000000000000, -0.000000000000000000 ) ) ;
#336 =( GEOMETRIC_REPRESENTATION_CONTEXT ( 3 ) GLOBAL_UNCERTAINTY_ASSIGNED_CONTEXT ( ( #432 ) ) GLOBAL_UNIT_ASSIGNED_CONTEXT ( ( #145, #387, #791 ) ) REPRESENTATION_CONTEXT ( 'NONE', 'WORKASPACE' ) );
#337 = EDGE_CURVE ( 'NONE', #804, #446, #561, .T. ) ;
#338 = DIRECTION ( 'NONE',  ( 7.744301232039326542E-17, -1.000000000000000000, 0.000000000000000000 ) ) ;
#339 = SURFACE_SIDE_STYLE ('',( #289 ) ) ;
#340 = ADVANCED_FACE ( 'NONE', ( #225 ), #830, .F. ) ;
#341 = FACE_OUTER_BOUND ( 'NONE', #850, .T. ) ;
#342 = DIRECTION ( 'NONE',  ( -1.204219087029993407E-16, 1.000000000000000000, -0.000000000000000000 ) ) ;
#343 = PLANE ( 'NONE',  #1000 ) ;
#344 = CIRCLE ( 'NONE', #864, 1.399999999999999911 ) ;
#345 = VECTOR ( 'NONE', #231, 1000.000000000000000 ) ;
#346 = DIRECTION ( 'NONE',  ( 1.204219087029993407E-16, -1.000000000000000000, 0.000000000000000000 ) ) ;
#347 = VECTOR ( 'NONE', #551, 1000.000000000000000 ) ;
#348 = PLANE ( 'NONE',  #266 ) ;
#349 = EDGE_CURVE ( 'NONE', #510, #882, #1012, .T. ) ;
#350 = LINE ( 'NONE', #622, #352 ) ;
#351 = SURFACE_STYLE_USAGE ( .BOTH. , #201 ) ;
#352 = VECTOR ( 'NONE', #238, 1000.000000000000000 ) ;
#353 = LINE ( 'NONE', #806, #345 ) ;
#354 = CARTESIAN_POINT ( 'NONE',  ( -1.019999999999996687, -28.80000000000000071, 0.2000000000000000111 ) ) ;
#355 = VECTOR ( 'NONE', #77, 1000.000000000000000 ) ;
#356 = ADVANCED_FACE ( 'NONE', ( #667 ), #409, .F. ) ;
#357 = LINE ( 'NONE', #174, #347 ) ;
#358 =( LENGTH_UNIT ( ) NAMED_UNIT ( * ) SI_UNIT ( .MILLI., .METRE. ) );
#359 = VECTOR ( 'NONE', #702, 1000.000000000000000 ) ;
#360 = AXIS2_PLACEMENT_3D ( 'NONE', #95, #672, #258 ) ;
#361 = CARTESIAN_POINT ( 'NONE',  ( -1.449999999999999956, 4.699999999999999289, 0.000000000000000000 ) ) ;
#362 = EDGE_CURVE ( 'NONE', #149, #875, #314, .T. ) ;
#363 = CIRCLE ( 'NONE', #302, 1.600000000000000089 ) ;
#364 = ADVANCED_FACE ( 'NONE', ( #664 ), #142, .T. ) ;
#365 = DIRECTION ( 'NONE',  ( -0.000000000000000000, -0.000000000000000000, -1.000000000000000000 ) ) ;
#366 = VECTOR ( 'NONE', #188, 1000.000000000000000 ) ;
#367 = FACE_OUTER_BOUND ( 'NONE', #792, .T. ) ;
#368 = DIRECTION ( 'NONE',  ( 1.000000000000000000, 0.000000000000000000, -0.000000000000000000 ) ) ;
#369 = AXIS2_PLACEMENT_3D ( 'NONE', #876, #638, #535 ) ;
#370 = EDGE_CURVE ( 'NONE', #93, #852, #315, .T. ) ;
#371 = LINE ( 'NONE', #673, #698 ) ;
#372 = LINE ( 'NONE', #837, #403 ) ;
#373 = ADVANCED_FACE ( 'NONE', ( #668 ), #635, .T. ) ;
#374 = LINE ( 'NONE', #914, #39 ) ;
#375 = DIRECTION ( 'NONE',  ( -0.000000000000000000, -0.000000000000000000, -1.000000000000000000 ) ) ;
#376 = PRESENTATION_STYLE_ASSIGNMENT (( #194 ) ) ;
#377 = VERTEX_POINT ( 'NONE', #574 ) ;
#378 = DIRECTION ( 'NONE',  ( 0.000000000000000000, 0.000000000000000000, -1.000000000000000000 ) ) ;
#379 = ORIENTED_EDGE ( 'NONE', *, *, #735, .T. ) ;
#380 = PLANE ( 'NONE',  #138 ) ;
#381 = ORIENTED_EDGE ( 'NONE', *, *, #337, .F. ) ;
#382 = CARTESIAN_POINT ( 'NONE',  ( 1.520000000000003348, -27.29999999999999716, 0.2000000000000000111 ) ) ;
#383 = PRESENTATION_LAYER_ASSIGNMENT (  '', '', ( #910 ) ) ;
#384 = CARTESIAN_POINT ( 'NONE',  ( -1.449999999999999956, 2.549999999999999822, 0.3840572873839750434 ) ) ;
#385 = ORIENTED_EDGE ( 'NONE', *, *, #239, .F. ) ;
#386 = LINE ( 'NONE', #1002, #56 ) ;
#387 =( NAMED_UNIT ( * ) PLANE_ANGLE_UNIT ( ) SI_UNIT ( $, .RADIAN. ) );
#388 = VECTOR ( 'NONE', #107, 1000.000000000000000 ) ;
#389 = CARTESIAN_POINT ( 'NONE',  ( -0.5200000000000000178, 1.399999999999998579, 0.2000000000000000111 ) ) ;
#390 = ORIENTED_EDGE ( 'NONE', *, *, #957, .T. ) ;
#391 = CIRCLE ( 'NONE', #675, 1.499999999999999778 ) ;
#392 = FACE_OUTER_BOUND ( 'NONE', #913, .T. ) ;
#393 = ORIENTED_EDGE ( 'NONE', *, *, #471, .F. ) ;
#394 = CARTESIAN_POINT ( 'NONE',  ( -1.520000000000000240, 0.5000000000000004441, 0.2000000000000000111 ) ) ;
#395 = EDGE_LOOP ( 'NONE', ( #846, #834, #562, #495, #156, #68, #917 ) ) ;
#396 = LINE ( 'NONE', #434, #388 ) ;
#397 = LINE ( 'NONE', #956, #768 ) ;
#398 = CARTESIAN_POINT ( 'NONE',  ( -1.020000000000000018, -7.230772483593523670E-17, 0.2000000000000000111 ) ) ;
#399 = EDGE_CURVE ( 'NONE', #869, #599, #636, .T. ) ;
#400 = ADVANCED_FACE ( 'NONE', ( #643 ), #333, .F. ) ;
#401 = DIRECTION ( 'NONE',  ( -1.000000000000000000, 0.000000000000000000, 0.000000000000000000 ) ) ;
#402 = VERTEX_POINT ( 'NONE', #885 ) ;
#403 = VECTOR ( 'NONE', #612, 1000.000000000000000 ) ;
#404 = PLANE ( 'NONE',  #1006 ) ;
#405 = VERTEX_POINT ( 'NONE', #732 ) ;
#406 = DIRECTION ( 'NONE',  ( -0.000000000000000000, -0.000000000000000000, -1.000000000000000000 ) ) ;
#407 = CIRCLE ( 'NONE', #153, 0.05000000000000012768 ) ;
#408 = ORIENTED_EDGE ( 'NONE', *, *, #287, .T. ) ;
#409 = PLANE ( 'NONE',  #579 ) ;
#410 = VECTOR ( 'NONE', #994, 1000.000000000000000 ) ;
#411 = CARTESIAN_POINT ( 'NONE',  ( -0.5199999999999999067, 0.000000000000000000, 0.2000000000000000111 ) ) ;
#412 = CARTESIAN_POINT ( 'NONE',  ( -1.020000000000000018, 1.399999999999998579, 0.2000000000000000111 ) ) ;
#413 = TOROIDAL_SURFACE ( 'NONE', #765, 1.499999999999999778, 0.04999999999999991257 ) ;
#414 = CARTESIAN_POINT ( 'NONE',  ( -1.449999999999999734, 2.576391312223174967, -0.1271493894541012859 ) ) ;
#415 = ORIENTED_EDGE ( 'NONE', *, *, #753, .F. ) ;
#416 = EDGE_CURVE ( 'NONE', #472, #869, #648, .T. ) ;
#417 = VECTOR ( 'NONE', #1004, 1000.000000000000000 ) ;
#418 = DIRECTION ( 'NONE',  ( 1.000000000000000000, 0.000000000000000000, 0.000000000000000000 ) ) ;
#419 = CARTESIAN_POINT ( 'NONE',  ( 1.020000000000000018, 1.399999999999998579, -0.2000000000000000111 ) ) ;
#420 = EDGE_LOOP ( 'NONE', ( #272, #973, #451, #192 ) ) ;
#421 = EDGE_CURVE ( 'NONE', #943, #119, #987, .T. ) ;
#422 = LINE ( 'NONE', #726, #90 ) ;
#423 = CARTESIAN_POINT ( 'NONE',  ( 1.450000000000000178, 1.399999999999999467, 0.6763874629234346569 ) ) ;
#424 = CARTESIAN_POINT ( 'NONE',  ( -1.449999999999999956, 2.549999999999999822, -0.3840572873934285925 ) ) ;
#425 = EDGE_CURVE ( 'NONE', #442, #49, #629, .T. ) ;
#426 = ORIENTED_EDGE ( 'NONE', *, *, #694, .F. ) ;
#427 = VECTOR ( 'NONE', #905, 1000.000000000000000 ) ;
#428 = ORIENTED_EDGE ( 'NONE', *, *, #32, .T. ) ;
#429 = VECTOR ( 'NONE', #938, 1000.000000000000000 ) ;
#430 = DIRECTION ( 'NONE',  ( 0.000000000000000000, -1.000000000000000000, 0.000000000000000000 ) ) ;
#431 = ORIENTED_EDGE ( 'NONE', *, *, #851, .F. ) ;
#432 = UNCERTAINTY_MEASURE_WITH_UNIT (LENGTH_MEASURE( 1.000000000000000082E-05 ), #145, 'distance_accuracy_value', 'NONE');
#433 = MANIFOLD_SOLID_BREP ( 'Fillet1', #234 ) ;
#434 = CARTESIAN_POINT ( 'NONE',  ( -1.520000000000000240, 0.5000000000000004441, 0.2000000000000000111 ) ) ;
#435 = CARTESIAN_POINT ( 'NONE',  ( 9.601024695159095376E-18, 6.099999999999999645, 0.000000000000000000 ) ) ;
#436 = LINE ( 'NONE', #445, #751 ) ;
#437 = AXIS2_PLACEMENT_3D ( 'NONE', #685, #642, #855 ) ;
#438 = VERTEX_POINT ( 'NONE', #55 ) ;
#439 = ADVANCED_FACE ( 'NONE', ( #989 ), #380, .F. ) ;
#440 = AXIS2_PLACEMENT_3D ( 'NONE', #257, #101, #401 ) ;
#441 = DIRECTION ( 'NONE',  ( 1.000000000000000000, 0.000000000000000000, 0.000000000000000000 ) ) ;
#442 = VERTEX_POINT ( 'NONE', #139 ) ;
#443 = LINE ( 'NONE', #789, #779 ) ;
#444 = CARTESIAN_POINT ( 'NONE',  ( 9.601024695159024502E-18, 6.099999999999999645, 0.000000000000000000 ) ) ;
#445 = CARTESIAN_POINT ( 'NONE',  ( 1.020000000000000018, 1.399999999999998579, 0.2000000000000000111 ) ) ;
#446 = VERTEX_POINT ( 'NONE', #361 ) ;
#447 = FACE_OUTER_BOUND ( 'NONE', #767, .T. ) ;
#448 = ORIENTED_EDGE ( 'NONE', *, *, #125, .T. ) ;
#449 = DIRECTION ( 'NONE',  ( -1.204219087029993407E-16, 1.000000000000000000, -0.000000000000000000 ) ) ;
#450 = CARTESIAN_POINT ( 'NONE',  ( 5.755839955992558669E-16, 1.399999999999999245, 0.000000000000000000 ) ) ;
#451 = ORIENTED_EDGE ( 'NONE', *, *, #1007, .F. ) ;
#452 = AXIS2_PLACEMENT_3D ( 'NONE', #481, #796, #321 ) ;
#453 = ORIENTED_EDGE ( 'NONE', *, *, #259, .F. ) ;
#454 = CLOSED_SHELL ( 'NONE', ( #548, #111, #488, #679, #784, #866, #632, #340, #364, #688 ) ) ;
#455 = CARTESIAN_POINT ( 'NONE',  ( 0.5200000000000001288, 1.273632671113247474E-16, 0.2000000000000000111 ) ) ;
#456 = ORIENTED_EDGE ( 'NONE', *, *, #362, .F. ) ;
#457 = PLANE ( 'NONE',  #197 ) ;
#458 = ORIENTED_EDGE ( 'NONE', *, *, #977, .T. ) ;
#459 = AXIS2_PLACEMENT_3D ( 'NONE', #435, #335, #881 ) ;
#460 = ORIENTED_EDGE ( 'NONE', *, *, #607, .F. ) ;
#461 = DIRECTION ( 'NONE',  ( -7.744301232039326542E-17, 1.000000000000000000, -0.000000000000000000 ) ) ;
#462 = EDGE_LOOP ( 'NONE', ( #582, #587, #415, #868 ) ) ;
#463 = CARTESIAN_POINT ( 'NONE',  ( -1.020000000000000018, -7.230772483593523670E-17, 0.2000000000000000111 ) ) ;
#464 = VERTEX_POINT ( 'NONE', #1015 ) ;
#465 = CARTESIAN_POINT ( 'NONE',  ( 1.449999999999999956, 10.00000000000000000, -0.6763874629234346569 ) ) ;
#466 = VERTEX_POINT ( 'NONE', #229 ) ;
#467 = VERTEX_POINT ( 'NONE', #455 ) ;
#468 = MECHANICAL_DESIGN_GEOMETRIC_PRESENTATION_REPRESENTATION (  '', ( #263 ), #655 ) ;
#469 = DIRECTION ( 'NONE',  ( 1.000000000000000000, 1.191430958775279679E-16, -0.000000000000000000 ) ) ;
#470 = ORIENTED_EDGE ( 'NONE', *, *, #945, .F. ) ;
#471 = EDGE_CURVE ( 'NONE', #907, #804, #312, .T. ) ;
#472 = VERTEX_POINT ( 'NONE', #221 ) ;
#473 = CARTESIAN_POINT ( 'NONE',  ( -1.449999999999999734, 2.600000000000000089, 0.000000000000000000 ) ) ;
#474 = ORIENTED_EDGE ( 'NONE', *, *, #58, .F. ) ;
#475 = CARTESIAN_POINT ( 'NONE',  ( 1.449999999999999956, 1.400000000000000133, -0.6763874629234346569 ) ) ;
#476 = EDGE_LOOP ( 'NONE', ( #613, #260, #62, #152 ) ) ;
#477 = DIRECTION ( 'NONE',  ( 1.000000000000000000, 2.168404344971008128E-16, 0.000000000000000000 ) ) ;
#478 = DIRECTION ( 'NONE',  ( 2.547265342226495440E-16, 1.000000000000000000, -0.000000000000000000 ) ) ;
#479 = DIRECTION ( 'NONE',  ( -1.000000000000000000, 0.000000000000000000, 0.000000000000000000 ) ) ;
#480 = AXIS2_PLACEMENT_3D ( 'NONE', #785, #75, #136 ) ;
#481 = CARTESIAN_POINT ( 'NONE',  ( 0.000000000000000000, 0.000000000000000000, -0.2000000000000000111 ) ) ;
#482 = EDGE_CURVE ( 'NONE', #466, #943, #284, .T. ) ;
#483 = CARTESIAN_POINT ( 'NONE',  ( 1.449999999999999956, 2.550000000000000266, 0.6763874629234346569 ) ) ;
#484 = CARTESIAN_POINT ( 'NONE',  ( 1.520000000000003570, 0.1498962308951448386, 0.2000000000000000111 ) ) ;
#485 = DIRECTION ( 'NONE',  ( -7.899499243026090007E-18, -1.000000000000000000, 0.000000000000000000 ) ) ;
#486 = DIRECTION ( 'NONE',  ( 0.000000000000000000, 0.000000000000000000, 1.000000000000000000 ) ) ;
#487 = CARTESIAN_POINT ( 'NONE',  ( 1.520000000000003348, -27.29999999999999716, 0.2000000000000000111 ) ) ;
#488 = ADVANCED_FACE ( 'NONE', ( #286 ), #237, .F. ) ;
#489 = B_SPLINE_CURVE_WITH_KNOTS ( 'NONE', 3,
 ( #897, #87, #818, #718 ),
 .UNSPECIFIED., .F., .F.,
 ( 4, 4 ),
 ( -7.615773107090884898E-06, 0.0003803520559636335550 ),
 .UNSPECIFIED. ) ;
#490 = DIRECTION ( 'NONE',  ( 1.000000000000000000, -2.547265342226495440E-16, 0.000000000000000000 ) ) ;
#491 = AXIS2_PLACEMENT_3D ( 'NONE', #724, #148, #814 ) ;
#492 = PLANE ( 'NONE',  #705 ) ;
#493 = ORIENTED_EDGE ( 'NONE', *, *, #337, .T. ) ;
#494 = DIRECTION ( 'NONE',  ( 1.000000000000000000, 1.204219087029993407E-16, 0.000000000000000000 ) ) ;
#495 = ORIENTED_EDGE ( 'NONE', *, *, #276, .T. ) ;
#496 = FILL_AREA_STYLE ('',( #15 ) ) ;
#497 = ORIENTED_EDGE ( 'NONE', *, *, #135, .T. ) ;
#498 = ORIENTED_EDGE ( 'NONE', *, *, #719, .T. ) ;
#499 = CARTESIAN_POINT ( 'NONE',  ( -1.449999999999999289, 1.399999999999999023, -0.6763874629234343239 ) ) ;
#500 = ORIENTED_EDGE ( 'NONE', *, *, #24, .F. ) ;
#501 = CARTESIAN_POINT ( 'NONE',  ( 1.020000000000000018, 0.000000000000000000, 0.2000000000000000111 ) ) ;
#502 = ORIENTED_EDGE ( 'NONE', *, *, #416, .T. ) ;
#503 = EDGE_CURVE ( 'NONE', #446, #804, #303, .T. ) ;
#504 = DIRECTION ( 'NONE',  ( -1.204219087029993407E-16, 1.000000000000000000, -0.000000000000000000 ) ) ;
#505 = ORIENTED_EDGE ( 'NONE', *, *, #1014, .T. ) ;
#506 = EDGE_CURVE ( 'NONE', #934, #936, #633, .T. ) ;
#507 = DIRECTION ( 'NONE',  ( -1.000000000000000000, 0.000000000000000000, 0.000000000000000000 ) ) ;
#508 = ORIENTED_EDGE ( 'NONE', *, *, #680, .F. ) ;
#509 = CARTESIAN_POINT ( 'NONE',  ( -1.449999999999999956, 2.550000000000000266, 0.6763874629234343239 ) ) ;
#510 = VERTEX_POINT ( 'NONE', #630 ) ;
#511 = ORIENTED_EDGE ( 'NONE', *, *, #421, .F. ) ;
#512 = CARTESIAN_POINT ( 'NONE',  ( 1.450000000000000178, 2.576395696266091218, -0.1271257783022392562 ) ) ;
#513 = ORIENTED_EDGE ( 'NONE', *, *, #506, .F. ) ;
#514 = DIRECTION ( 'NONE',  ( 0.000000000000000000, 0.000000000000000000, 1.000000000000000000 ) ) ;
#515 = ORIENTED_EDGE ( 'NONE', *, *, #993, .T. ) ;
#516 = EDGE_CURVE ( 'NONE', #264, #627, #990, .T. ) ;
#517 =( NAMED_UNIT ( * ) PLANE_ANGLE_UNIT ( ) SI_UNIT ( $, .RADIAN. ) );
#518 = ORIENTED_EDGE ( 'NONE', *, *, #125, .F. ) ;
#519 = EDGE_LOOP ( 'NONE', ( #202, #282, #381, #393 ) ) ;
#520 = ORIENTED_EDGE ( 'NONE', *, *, #720, .T. ) ;
#521 = ORIENTED_EDGE ( 'NONE', *, *, #607, .T. ) ;
#522 = VERTEX_POINT ( 'NONE', #473 ) ;
#523 = ORIENTED_EDGE ( 'NONE', *, *, #32, .F. ) ;
#524 = AXIS2_PLACEMENT_3D ( 'NONE', #962, #81, #155 ) ;
#525 = DIRECTION ( 'NONE',  ( 0.000000000000000000, -1.000000000000000000, 0.000000000000000000 ) ) ;
#526 = ORIENTED_EDGE ( 'NONE', *, *, #659, .T. ) ;
#527 = DIRECTION ( 'NONE',  ( 1.258118561928571626E-16, -1.000000000000000000, -0.000000000000000000 ) ) ;
#528 = VERTEX_POINT ( 'NONE', #708 ) ;
#529 = ADVANCED_FACE ( 'NONE', ( #985 ), #700, .F. ) ;
#530 = ORIENTED_EDGE ( 'NONE', *, *, #720, .F. ) ;
#531 = ORIENTED_EDGE ( 'NONE', *, *, #977, .F. ) ;
#532 = ORIENTED_EDGE ( 'NONE', *, *, #1024, .F. ) ;
#533 = CARTESIAN_POINT ( 'NONE',  ( 1.520000000000003570, 0.1498962308951448386, 0.2000000000000000111 ) ) ;
#534 = ORIENTED_EDGE ( 'NONE', *, *, #290, .F. ) ;
#535 = DIRECTION ( 'NONE',  ( 1.000000000000000000, 1.204219087029993407E-16, 0.000000000000000000 ) ) ;
#536 = EDGE_LOOP ( 'NONE', ( #520, #196, #906, #919 ) ) ;
#537 = ORIENTED_EDGE ( 'NONE', *, *, #879, .F. ) ;
#538 = DIRECTION ( 'NONE',  ( 2.168404344971008128E-16, -1.000000000000000000, 0.000000000000000000 ) ) ;
#539 = ADVANCED_FACE ( 'NONE', ( #654 ), #137, .T. ) ;
#540 = EDGE_CURVE ( 'NONE', #203, #377, #291, .T. ) ;
#541 = ORIENTED_EDGE ( 'NONE', *, *, #276, .F. ) ;
#542 = DIRECTION ( 'NONE',  ( 1.204219087029993407E-16, -1.000000000000000000, 0.000000000000000000 ) ) ;
#543 = CARTESIAN_POINT ( 'NONE',  ( 4.370988005908065892E-16, 2.550000000000000266, 0.000000000000000000 ) ) ;
#544 = VECTOR ( 'NONE', #1009, 1000.000000000000000 ) ;
#545 = SHAPE_DEFINITION_REPRESENTATION ( #832, #646 ) ;
#546 = CARTESIAN_POINT ( 'NONE',  ( -1.020000000000000018, 1.399999999999998579, 0.2000000000000000111 ) ) ;
#547 = ORIENTED_EDGE ( 'NONE', *, *, #793, .F. ) ;
#548 = ADVANCED_FACE ( 'NONE', ( #307 ), #873, .F. ) ;
#549 = COLOUR_RGB ( '',0.7921568627450980005, 0.8196078431372548767, 0.9333333333333333481 ) ;
#550 = ORIENTED_EDGE ( 'NONE', *, *, #782, .F. ) ;
#551 = DIRECTION ( 'NONE',  ( 0.000000000000000000, -1.000000000000000000, 0.000000000000000000 ) ) ;
#552 = FACE_OUTER_BOUND ( 'NONE', #173, .T. ) ;
#553 = PLANE ( 'NONE',  #593 ) ;
#554 = LINE ( 'NONE', #295, #932 ) ;
#555 = VECTOR ( 'NONE', #841, 1000.000000000000000 ) ;
#556 = EDGE_CURVE ( 'NONE', #119, #933, #293, .T. ) ;
#557 = DIRECTION ( 'NONE',  ( 1.191430958775279679E-16, -1.000000000000000000, 0.000000000000000000 ) ) ;
#558 = VECTOR ( 'NONE', #641, 1000.000000000000000 ) ;
#559 = LINE ( 'NONE', #296, #887 ) ;
#560 = CARTESIAN_POINT ( 'NONE',  ( 9.601024695159024502E-18, 6.099999999999999645, 0.000000000000000000 ) ) ;
#561 = CIRCLE ( 'NONE', #670, 1.450000000000000178 ) ;
#562 = ORIENTED_EDGE ( 'NONE', *, *, #793, .T. ) ;
#563 = VECTOR ( 'NONE', #117, 1000.000000000000000 ) ;
#564 = LINE ( 'NONE', #984, #235 ) ;
#565 = PRODUCT_DEFINITION_FORMATION_WITH_SPECIFIED_SOURCE ( 'ANY', '', #657, .NOT_KNOWN. ) ;
#566 = ORIENTED_EDGE ( 'NONE', *, *, #311, .F. ) ;
#567 = LINE ( 'NONE', #412, #920 ) ;
#568 = DIRECTION ( 'NONE',  ( -0.8191520442889929088, 0.5735764363510444941, 0.000000000000000000 ) ) ;
#569 = VECTOR ( 'NONE', #1013, 1000.000000000000000 ) ;
#570 = ORIENTED_EDGE ( 'NONE', *, *, #3, .F. ) ;
#571 = LINE ( 'NONE', #972, #904 ) ;
#572 = DIRECTION ( 'NONE',  ( -1.000000000000000000, -1.204219087029993407E-16, 0.000000000000000000 ) ) ;
#573 = AXIS2_PLACEMENT_3D ( 'NONE', #631, #16, #479 ) ;
#574 = CARTESIAN_POINT ( 'NONE',  ( -1.449999999999999956, 1.399999999999998579, 0.6763874629234343239 ) ) ;
#575 = VERTEX_POINT ( 'NONE', #652 ) ;
#576 = VECTOR ( 'NONE', #48, 1000.000000000000000 ) ;
#577 = DIRECTION ( 'NONE',  ( 0.8191520442889929088, -0.5735764363510444941, 0.000000000000000000 ) ) ;
#578 = VECTOR ( 'NONE', #461, 1000.000000000000000 ) ;
#579 = AXIS2_PLACEMENT_3D ( 'NONE', #803, #975, #98 ) ;
#580 = CARTESIAN_POINT ( 'NONE',  ( 1.449999999999999956, 2.549999999999999822, 0.3840572873934319231 ) ) ;
#581 = FACE_OUTER_BOUND ( 'NONE', #476, .T. ) ;
#582 = ORIENTED_EDGE ( 'NONE', *, *, #399, .T. ) ;
#583 =( NAMED_UNIT ( * ) SI_UNIT ( $, .STERADIAN. ) SOLID_ANGLE_UNIT ( ) );
#584 = VERTEX_POINT ( 'NONE', #546 ) ;
#585 = VECTOR ( 'NONE', #621, 1000.000000000000000 ) ;
#586 = DIRECTION ( 'NONE',  ( 1.000000000000000000, 0.000000000000000000, 0.000000000000000000 ) ) ;
#587 = ORIENTED_EDGE ( 'NONE', *, *, #327, .F. ) ;
#588 = EDGE_LOOP ( 'NONE', ( #857, #390, #842, #939, #756, #946, #598, #526 ) ) ;
#589 = DIRECTION ( 'NONE',  ( -7.744301232039326542E-17, 1.000000000000000000, -0.000000000000000000 ) ) ;
#590 = LINE ( 'NONE', #948, #909 ) ;
#591 = ORIENTED_EDGE ( 'NONE', *, *, #516, .F. ) ;
#592 = CARTESIAN_POINT ( 'NONE',  ( 1.450000000000000178, 2.600000000000000089, 0.000000000000000000 ) ) ;
#593 = AXIS2_PLACEMENT_3D ( 'NONE', #880, #538, #477 ) ;
#594 = LINE ( 'NONE', #316, #227 ) ;
#595 = CARTESIAN_POINT ( 'NONE',  ( 4.336808689942017736E-16, 2.600000000000000089, 0.000000000000000000 ) ) ;
#596 = SURFACE_STYLE_FILL_AREA ( #496 ) ;
#597 = CARTESIAN_POINT ( 'NONE',  ( 4.370988005908065892E-16, 2.550000000000000266, 0.000000000000000000 ) ) ;
#598 = ORIENTED_EDGE ( 'NONE', *, *, #349, .T. ) ;
#599 = VERTEX_POINT ( 'NONE', #308 ) ;
#600 = FACE_OUTER_BOUND ( 'NONE', #395, .T. ) ;
#601 = ORIENTED_EDGE ( 'NONE', *, *, #320, .T. ) ;
#602 = DIRECTION ( 'NONE',  ( -1.000000000000000000, 0.000000000000000000, 0.000000000000000000 ) ) ;
#603 = CIRCLE ( 'NONE', #459, 0.05000000000000012768 ) ;
#604 = PLANE ( 'NONE',  #298 ) ;
#605 = FACE_OUTER_BOUND ( 'NONE', #624, .T. ) ;
#606 = ADVANCED_FACE ( 'NONE', ( #774 ), #4, .F. ) ;
#607 = EDGE_CURVE ( 'NONE', #835, #522, #707, .T. ) ;
#608 =( NAMED_UNIT ( * ) PLANE_ANGLE_UNIT ( ) SI_UNIT ( $, .RADIAN. ) );
#609 = ORIENTED_EDGE ( 'NONE', *, *, #183, .T. ) ;
#610 = DIRECTION ( 'NONE',  ( 1.000000000000000000, -0.000000000000000000, -0.000000000000000000 ) ) ;
#611 = EDGE_LOOP ( 'NONE', ( #729, #385, #178, #458 ) ) ;
#612 = DIRECTION ( 'NONE',  ( 1.000000000000000000, 1.446154496718704241E-16, -0.000000000000000000 ) ) ;
#613 = ORIENTED_EDGE ( 'NONE', *, *, #12, .T. ) ;
#614 = EDGE_CURVE ( 'NONE', #522, #446, #443, .T. ) ;
#615 = ORIENTED_EDGE ( 'NONE', *, *, #421, .T. ) ;
#616 = ADVANCED_FACE ( 'NONE', ( #447 ), #553, .F. ) ;
#617 = CARTESIAN_POINT ( 'NONE',  ( 1.781916968793580942E-16, 4.699999999999999289, 0.000000000000000000 ) ) ;
#618 = ORIENTED_EDGE ( 'NONE', *, *, #76, .T. ) ;
#619 = ORIENTED_EDGE ( 'NONE', *, *, #782, .T. ) ;
#620 = AXIS2_PLACEMENT_3D ( 'NONE', #450, #816, #25 ) ;
#621 = DIRECTION ( 'NONE',  ( -0.000000000000000000, -0.000000000000000000, -1.000000000000000000 ) ) ;
#622 = CARTESIAN_POINT ( 'NONE',  ( -1.449999999999999956, 2.549999999999999822, 0.000000000000000000 ) ) ;
#623 = EDGE_CURVE ( 'NONE', #171, #810, #92, .T. ) ;
#624 = EDGE_LOOP ( 'NONE', ( #431, #426, #978, #843 ) ) ;
#625 = ORIENTED_EDGE ( 'NONE', *, *, #614, .T. ) ;
#626 = DIRECTION ( 'NONE',  ( 0.000000000000000000, -1.000000000000000000, 0.000000000000000000 ) ) ;
#627 = VERTEX_POINT ( 'NONE', #159 ) ;
#628 = COLOUR_RGB ( '',0.7529411764705882248, 0.000000000000000000, 0.000000000000000000 ) ;
#629 = CIRCLE ( 'NONE', #491, 1.499999999999999778 ) ;
#630 = CARTESIAN_POINT ( 'NONE',  ( 1.520000000000003570, 0.1498962308951448386, 0.2000000000000000111 ) ) ;
#631 = CARTESIAN_POINT ( 'NONE',  ( 9.601024695159024502E-18, 6.099999999999999645, 0.000000000000000000 ) ) ;
#632 = ADVANCED_FACE ( 'NONE', ( #783 ), #780, .F. ) ;
#633 = LINE ( 'NONE', #769, #983 ) ;
#634 = STYLED_ITEM ( 'NONE', ( #376 ), #1011 ) ;
#635 = CYLINDRICAL_SURFACE ( 'NONE', #440, 1.450000000000000178 ) ;
#636 = LINE ( 'NONE', #419, #297 ) ;
#637 = AXIS2_PLACEMENT_3D ( 'NONE', #560, #65, #692 ) ;
#638 = DIRECTION ( 'NONE',  ( 1.204219087029993407E-16, -1.000000000000000000, 0.000000000000000000 ) ) ;
#639 = VECTOR ( 'NONE', #586, 1000.000000000000000 ) ;
#640 = VECTOR ( 'NONE', #167, 1000.000000000000000 ) ;
#641 = DIRECTION ( 'NONE',  ( 0.000000000000000000, 0.000000000000000000, 1.000000000000000000 ) ) ;
#642 = DIRECTION ( 'NONE',  ( -1.204219087029993407E-16, 1.000000000000000000, -0.000000000000000000 ) ) ;
#643 = FACE_OUTER_BOUND ( 'NONE', #278, .T. ) ;
#644 = DIRECTION ( 'NONE',  ( 0.000000000000000000, 1.000000000000000000, -0.000000000000000000 ) ) ;
#645 = CARTESIAN_POINT ( 'NONE',  ( -1.519999999999996687, -28.80000000000000071, -0.2000000000000000111 ) ) ;
#646 = ADVANCED_BREP_SHAPE_REPRESENTATION ( 'TLLR4400', ( #433, #331, #1011, #996 ), #6 ) ;
#647 = AXIS2_PLACEMENT_3D ( 'NONE', #597, #666, #775 ) ;
#648 = LINE ( 'NONE', #84, #656 ) ;
#649 = CARTESIAN_POINT ( 'NONE',  ( 0.5200000000000000178, 1.399999999999998579, 0.2000000000000000111 ) ) ;
#650 = DIRECTION ( 'NONE',  ( -1.000000000000000000, 0.000000000000000000, 0.000000000000000000 ) ) ;
#651 = ADVANCED_FACE ( 'NONE', ( #72 ), #809, .F. ) ;
#652 = CARTESIAN_POINT ( 'NONE',  ( -1.020000000000000018, 0.5000000000000005551, 0.2000000000000000111 ) ) ;
#653 = DIRECTION ( 'NONE',  ( -0.000000000000000000, -0.000000000000000000, -1.000000000000000000 ) ) ;
#654 = FACE_OUTER_BOUND ( 'NONE', #105, .T. ) ;
#655 =( GEOMETRIC_REPRESENTATION_CONTEXT ( 3 ) GLOBAL_UNCERTAINTY_ASSIGNED_CONTEXT ( ( #812 ) ) GLOBAL_UNIT_ASSIGNED_CONTEXT ( ( #902, #517, #757 ) ) REPRESENTATION_CONTEXT ( 'NONE', 'WORKASPACE' ) );
#656 = VECTOR ( 'NONE', #18, 1000.000000000000000 ) ;
#657 = PRODUCT ( 'TLLR4400', 'TLLR4400', '', ( #150 ) ) ;
#658 = DIRECTION ( 'NONE',  ( 0.000000000000000000, 1.000000000000000000, 0.000000000000000000 ) ) ;
#659 = EDGE_CURVE ( 'NONE', #882, #438, #397, .T. ) ;
#660 = DIRECTION ( 'NONE',  ( -1.204219087029993407E-16, 1.000000000000000000, -0.000000000000000000 ) ) ;
#661 = ADVANCED_FACE ( 'NONE', ( #69 ), #704, .F. ) ;
#662 = APPLICATION_CONTEXT ( 'automotive_design' ) ;
#663 = DIRECTION ( 'NONE',  ( 1.204219087029993407E-16, -1.000000000000000000, 0.000000000000000000 ) ) ;
#664 = FACE_OUTER_BOUND ( 'NONE', #588, .T. ) ;
#665 = DIRECTION ( 'NONE',  ( -0.8191520442889929088, 0.5735764363510444941, 0.000000000000000000 ) ) ;
#666 = DIRECTION ( 'NONE',  ( -1.204219087029993407E-16, 1.000000000000000000, -0.000000000000000000 ) ) ;
#667 = FACE_OUTER_BOUND ( 'NONE', #883, .T. ) ;
#668 = FACE_OUTER_BOUND ( 'NONE', #817, .T. ) ;
#669 = AXIS2_PLACEMENT_3D ( 'NONE', #695, #644, #712 ) ;
#670 = AXIS2_PLACEMENT_3D ( 'NONE', #163, #346, #441 ) ;
#671 = DIRECTION ( 'NONE',  ( -1.191430958775279679E-16, 1.000000000000000000, 0.000000000000000000 ) ) ;
#672 = DIRECTION ( 'NONE',  ( -1.204219087029993407E-16, 1.000000000000000000, -0.000000000000000000 ) ) ;
#673 = CARTESIAN_POINT ( 'NONE',  ( -1.449999999999999956, 10.00000000000000000, -0.6763874629234343239 ) ) ;
#674 = DIRECTION ( 'NONE',  ( 0.000000000000000000, -0.000000000000000000, -1.000000000000000000 ) ) ;
#675 = AXIS2_PLACEMENT_3D ( 'NONE', #733, #342, #507 ) ;
#676 = CARTESIAN_POINT ( 'NONE',  ( -1.519999999999996687, -28.80000000000000071, -0.2000000000000000111 ) ) ;
#677 = DIRECTION ( 'NONE',  ( 1.000000000000000000, 0.000000000000000000, 0.000000000000000000 ) ) ;
#678 = LINE ( 'NONE', #382, #359 ) ;
#679 = ADVANCED_FACE ( 'NONE', ( #63 ), #404, .F. ) ;
#680 = EDGE_CURVE ( 'NONE', #627, #807, #34, .T. ) ;
#681 = TOROIDAL_SURFACE ( 'NONE', #437, 1.499999999999999778, 0.04999999999999991257 ) ;
#682 = FACE_OUTER_BOUND ( 'NONE', #214, .T. ) ;
#683 = FACE_OUTER_BOUND ( 'NONE', #781, .T. ) ;
#684 = CARTESIAN_POINT ( 'NONE',  ( 1.449999999999999956, 2.550000000000000266, 0.000000000000000000 ) ) ;
#685 = CARTESIAN_POINT ( 'NONE',  ( 4.336808689942017736E-16, 2.600000000000000089, 0.000000000000000000 ) ) ;
#686 = DIRECTION ( 'NONE',  ( -1.204669080539449344E-16, 1.000000000000000000, -0.000000000000000000 ) ) ;
#687 = CYLINDRICAL_SURFACE ( 'NONE', #573, 1.600000000000000311 ) ;
#688 = ADVANCED_FACE ( 'NONE', ( #744 ), #348, .F. ) ;
#689 = FACE_OUTER_BOUND ( 'NONE', #725, .T. ) ;
#690 = CYLINDRICAL_SURFACE ( 'NONE', #637, 1.450000000000000178 ) ;
#691 = CARTESIAN_POINT ( 'NONE',  ( 1.020000000000000018, 0.000000000000000000, 0.2000000000000000111 ) ) ;
#692 = DIRECTION ( 'NONE',  ( -1.000000000000000000, 0.000000000000000000, 0.000000000000000000 ) ) ;
#693 = EDGE_CURVE ( 'NONE', #882, #472, #771, .T. ) ;
#694 = EDGE_CURVE ( 'NONE', #907, #800, #407, .T. ) ;
#695 = CARTESIAN_POINT ( 'NONE',  ( -1.019999999999996687, -28.80000000000000071, 0.2000000000000000111 ) ) ;
#696 = VECTOR ( 'NONE', #375, 1000.000000000000000 ) ;
#697 = ADVANCED_FACE ( 'NONE', ( #715 ), #413, .F. ) ;
#698 = VECTOR ( 'NONE', #430, 1000.000000000000000 ) ;
#699 = FACE_OUTER_BOUND ( 'NONE', #611, .T. ) ;
#700 = PLANE ( 'NONE',  #524 ) ;
#701 = LINE ( 'NONE', #110, #366 ) ;
#702 = DIRECTION ( 'NONE',  ( 7.899499243026090007E-18, 1.000000000000000000, 0.000000000000000000 ) ) ;
#703 = PRODUCT_RELATED_PRODUCT_CATEGORY ( 'part', '', ( #657 ) ) ;
#704 = PLANE ( 'NONE',  #669 ) ;
#705 = AXIS2_PLACEMENT_3D ( 'NONE', #988, #129, #916 ) ;
#706 = CIRCLE ( 'NONE', #886, 1.449999999999999956 ) ;
#707 = B_SPLINE_CURVE_WITH_KNOTS ( 'NONE', 3,
 ( #384, #961, #151, #94 ),
 .UNSPECIFIED., .F., .F.,
 ( 4, 4 ),
 ( 0.0007395677422350601998, 0.001127463527164620973 ),
 .UNSPECIFIED. ) ;
#708 = CARTESIAN_POINT ( 'NONE',  ( -1.520000000000000240, 0.5000000000000004441, -0.2000000000000000111 ) ) ;
#709 = EDGE_CURVE ( 'NONE', #936, #74, #372, .T. ) ;
#710 = COLOUR_RGB ( '',0.7921568627450980005, 0.8196078431372548767, 0.9333333333333333481 ) ;
#711 = CARTESIAN_POINT ( 'NONE',  ( -1.519999999999996687, -28.80000000000000071, 0.2000000000000000111 ) ) ;
#712 = DIRECTION ( 'NONE',  ( 0.000000000000000000, 0.000000000000000000, 1.000000000000000000 ) ) ;
#713 = DIRECTION ( 'NONE',  ( -0.000000000000000000, -0.000000000000000000, -1.000000000000000000 ) ) ;
#714 = CARTESIAN_POINT ( 'NONE',  ( 0.05000000000000013461, 6.099999999999999645, 0.000000000000000000 ) ) ;
#715 = FACE_OUTER_BOUND ( 'NONE', #420, .T. ) ;
#716 = VECTOR ( 'NONE', #822, 1000.000000000000000 ) ;
#717 = DIRECTION ( 'NONE',  ( 7.744301232039327775E-17, -1.000000000000000000, 0.000000000000000000 ) ) ;
#718 = CARTESIAN_POINT ( 'NONE',  ( 1.449999999999999956, 2.549999999999999822, 0.3840572873934319231 ) ) ;
#719 = EDGE_CURVE ( 'NONE', #402, #466, #59, .T. ) ;
#720 = EDGE_CURVE ( 'NONE', #113, #934, #734, .T. ) ;
#721 = CARTESIAN_POINT ( 'NONE',  ( -1.449999999999999956, 2.549999999999999822, -0.2545605692163661060 ) ) ;
#722 = PLANE ( 'NONE',  #67 ) ;
#723 = EDGE_LOOP ( 'NONE', ( #498, #154, #728, #609 ) ) ;
#724 = CARTESIAN_POINT ( 'NONE',  ( 4.370988005908066879E-16, 2.549999999999999822, 0.000000000000000000 ) ) ;
#725 = EDGE_LOOP ( 'NONE', ( #759, #531, #500, #550 ) ) ;
#726 = CARTESIAN_POINT ( 'NONE',  ( -1.019999999999996687, -28.80000000000000071, 0.2000000000000000111 ) ) ;
#727 = DIRECTION ( 'NONE',  ( -0.000000000000000000, -0.000000000000000000, -1.000000000000000000 ) ) ;
#728 = ORIENTED_EDGE ( 'NONE', *, *, #1016, .F. ) ;
#729 = ORIENTED_EDGE ( 'NONE', *, *, #991, .F. ) ;
#730 = APPLICATION_PROTOCOL_DEFINITION ( 'draft international standard', 'automotive_design', 1998, #662 ) ;
#731 = ORIENTED_EDGE ( 'NONE', *, *, #239, .T. ) ;
#732 = CARTESIAN_POINT ( 'NONE',  ( -1.020000000000000018, 1.399999999999998579, -0.2000000000000000111 ) ) ;
#733 = CARTESIAN_POINT ( 'NONE',  ( 4.370988005908066879E-16, 2.549999999999999822, 0.000000000000000000 ) ) ;
#734 = LINE ( 'NONE', #265, #417 ) ;
#735 = EDGE_CURVE ( 'NONE', #933, #472, #760, .T. ) ;
#736 = LINE ( 'NONE', #334, #52 ) ;
#737 = EDGE_CURVE ( 'NONE', #875, #93, #422, .T. ) ;
#738 = ORIENTED_EDGE ( 'NONE', *, *, #279, .F. ) ;
#739 = CARTESIAN_POINT ( 'NONE',  ( 4.310777051556566678E-16, 2.600000000000000089, 0.000000000000000000 ) ) ;
#740 = FACE_OUTER_BOUND ( 'NONE', #131, .T. ) ;
#741 = SURFACE_STYLE_USAGE ( .BOTH. , #339 ) ;
#742 = ORIENTED_EDGE ( 'NONE', *, *, #836, .F. ) ;
#743 = CARTESIAN_POINT ( 'NONE',  ( 1.020000000000000018, 0.5000000000000007772, 0.2000000000000000111 ) ) ;
#744 = FACE_OUTER_BOUND ( 'NONE', #253, .T. ) ;
#745 = CARTESIAN_POINT ( 'NONE',  ( 1.600000000000000755, 2.550000000000000266, 0.000000000000000000 ) ) ;
#746 = ORIENTED_EDGE ( 'NONE', *, *, #255, .T. ) ;
#747 = VERTEX_POINT ( 'NONE', #423 ) ;
#748 = DIRECTION ( 'NONE',  ( -1.258118561928571872E-16, 1.000000000000000000, 0.000000000000000000 ) ) ;
#749 = SURFACE_STYLE_FILL_AREA ( #37 ) ;
#750 = VERTEX_POINT ( 'NONE', #411 ) ;
#751 = VECTOR ( 'NONE', #823, 1000.000000000000000 ) ;
#752 = EDGE_LOOP ( 'NONE', ( #773, #923, #797, #128, #175, #130, #97, #122 ) ) ;
#753 = EDGE_CURVE ( 'NONE', #438, #903, #436, .T. ) ;
#754 = CARTESIAN_POINT ( 'NONE',  ( 9.601024695159095376E-18, 6.099999999999999645, 0.000000000000000000 ) ) ;
#755 = ADVANCED_FACE ( 'NONE', ( #367 ), #492, .T. ) ;
#756 = ORIENTED_EDGE ( 'NONE', *, *, #680, .T. ) ;
#757 =( NAMED_UNIT ( * ) SI_UNIT ( $, .STERADIAN. ) SOLID_ANGLE_UNIT ( ) );
#758 = ORIENTED_EDGE ( 'NONE', *, *, #255, .F. ) ;
#759 = ORIENTED_EDGE ( 'NONE', *, *, #540, .F. ) ;
#760 = LINE ( 'NONE', #114, #762 ) ;
#761 = ORIENTED_EDGE ( 'NONE', *, *, #821, .F. ) ;
#762 = VECTOR ( 'NONE', #665, 1000.000000000000000 ) ;
#763 = ADVANCED_FACE ( 'NONE', ( #764 ), #604, .F. ) ;
#764 = FACE_OUTER_BOUND ( 'NONE', #274, .T. ) ;
#765 = AXIS2_PLACEMENT_3D ( 'NONE', #595, #121, #827 ) ;
#766 = EDGE_CURVE ( 'NONE', #93, #934, #50, .T. ) ;
#767 = EDGE_LOOP ( 'NONE', ( #210, #211, #218, #428 ) ) ;
#768 = VECTOR ( 'NONE', #70, 1000.000000000000000 ) ;
#769 = CARTESIAN_POINT ( 'NONE',  ( -1.020000000000000018, -7.230772483593523670E-17, -0.2000000000000000111 ) ) ;
#770 = ORIENTED_EDGE ( 'NONE', *, *, #839, .T. ) ;
#771 = LINE ( 'NONE', #743, #410 ) ;
#772 = ORIENTED_EDGE ( 'NONE', *, *, #170, .T. ) ;
#773 = ORIENTED_EDGE ( 'NONE', *, *, #1024, .T. ) ;
#774 = FACE_OUTER_BOUND ( 'NONE', #100, .T. ) ;
#775 = DIRECTION ( 'NONE',  ( -1.000000000000000000, 0.000000000000000000, 0.000000000000000000 ) ) ;
#776 = CARTESIAN_POINT ( 'NONE',  ( 1.020000000000000018, 1.399999999999998579, -0.2000000000000000111 ) ) ;
#777 = ORIENTED_EDGE ( 'NONE', *, *, #1014, .F. ) ;
#778 = EDGE_CURVE ( 'NONE', #575, #149, #396, .T. ) ;
#779 = VECTOR ( 'NONE', #867, 1000.000000000000000 ) ;
#780 = PLANE ( 'NONE',  #112 ) ;
#781 = EDGE_LOOP ( 'NONE', ( #80, #109, #566, #505 ) ) ;
#782 = EDGE_CURVE ( 'NONE', #377, #747, #89, .T. ) ;
#783 = FACE_OUTER_BOUND ( 'NONE', #123, .T. ) ;
#784 = ADVANCED_FACE ( 'NONE', ( #740 ), #896, .F. ) ;
#785 = CARTESIAN_POINT ( 'NONE',  ( 0.05000000000000030809, 4.699999999999999289, 0.000000000000000000 ) ) ;
#786 = DIRECTION ( 'NONE',  ( -1.446154496718704487E-16, 1.000000000000000000, 0.000000000000000000 ) ) ;
#787 =( GEOMETRIC_REPRESENTATION_CONTEXT ( 3 ) GLOBAL_UNCERTAINTY_ASSIGNED_CONTEXT ( ( #953 ) ) GLOBAL_UNIT_ASSIGNED_CONTEXT ( ( #358, #608, #28 ) ) REPRESENTATION_CONTEXT ( 'NONE', 'WORKASPACE' ) );
#788 = APPLICATION_CONTEXT ( 'automotive_design' ) ;
#789 = CARTESIAN_POINT ( 'NONE',  ( -1.450000000000000178, 6.099999999999999645, 0.000000000000000000 ) ) ;
#790 = ORIENTED_EDGE ( 'NONE', *, *, #58, .T. ) ;
#791 =( NAMED_UNIT ( * ) SI_UNIT ( $, .STERADIAN. ) SOLID_ANGLE_UNIT ( ) );
#792 = EDGE_LOOP ( 'NONE', ( #618, #521, #863, #770, #162, #870, #761 ) ) ;
#793 = EDGE_CURVE ( 'NONE', #132, #166, #736, .T. ) ;
#794 = ORIENTED_EDGE ( 'NONE', *, *, #88, .T. ) ;
#795 = EDGE_CURVE ( 'NONE', #835, #132, #391, .T. ) ;
#796 = DIRECTION ( 'NONE',  ( 0.000000000000000000, 0.000000000000000000, -1.000000000000000000 ) ) ;
#797 = ORIENTED_EDGE ( 'NONE', *, *, #778, .T. ) ;
#798 = UNCERTAINTY_MEASURE_WITH_UNIT (LENGTH_MEASURE( 1.000000000000000082E-05 ), #813, 'distance_accuracy_value', 'NONE');
#799 = CARTESIAN_POINT ( 'NONE',  ( 1.020000000000000018, 0.000000000000000000, -0.2000000000000000111 ) ) ;
#800 = VERTEX_POINT ( 'NONE', #33 ) ;
#801 = DIRECTION ( 'NONE',  ( -0.000000000000000000, -0.000000000000000000, -1.000000000000000000 ) ) ;
#802 = AXIS2_PLACEMENT_3D ( 'NONE', #960, #663, #808 ) ;
#803 = CARTESIAN_POINT ( 'NONE',  ( -1.020000000000000018, -7.230772483593523670E-17, 0.2000000000000000111 ) ) ;
#804 = VERTEX_POINT ( 'NONE', #165 ) ;
#805 = AXIS2_PLACEMENT_3D ( 'NONE', #7, #254, #323 ) ;
#806 = CARTESIAN_POINT ( 'NONE',  ( -1.020000000000000018, 0.5000000000000005551, -0.2000000000000000111 ) ) ;
#807 = VERTEX_POINT ( 'NONE', #1 ) ;
#808 = DIRECTION ( 'NONE',  ( 1.000000000000000000, 1.204219087029993407E-16, 0.000000000000000000 ) ) ;
#809 = PLANE ( 'NONE',  #53 ) ;
#810 = VERTEX_POINT ( 'NONE', #475 ) ;
#811 = DIRECTION ( 'NONE',  ( -7.744301232039327775E-17, 1.000000000000000000, 0.000000000000000000 ) ) ;
#812 = UNCERTAINTY_MEASURE_WITH_UNIT (LENGTH_MEASURE( 1.000000000000000082E-05 ), #902, 'distance_accuracy_value', 'NONE');
#813 =( LENGTH_UNIT ( ) NAMED_UNIT ( * ) SI_UNIT ( .MILLI., .METRE. ) );
#814 = DIRECTION ( 'NONE',  ( -1.000000000000000000, 0.000000000000000000, 0.000000000000000000 ) ) ;
#815 = ADVANCED_FACE ( 'NONE', ( #5 ), #14, .T. ) ;
#816 = DIRECTION ( 'NONE',  ( -1.204219087029993407E-16, 1.000000000000000000, -0.000000000000000000 ) ) ;
#817 = EDGE_LOOP ( 'NONE', ( #518, #515, #625, #85 ) ) ;
#818 = CARTESIAN_POINT ( 'NONE',  ( 1.449999999999999956, 2.550000000000000266, 0.2545605692163684930 ) ) ;
#819 = AXIS2_PLACEMENT_3D ( 'NONE', #617, #542, #677 ) ;
#820 = EDGE_LOOP ( 'NONE', ( #502, #738, #54, #248 ) ) ;
#821 = EDGE_CURVE ( 'NONE', #57, #377, #357, .T. ) ;
#822 = DIRECTION ( 'NONE',  ( -0.000000000000000000, -0.000000000000000000, -1.000000000000000000 ) ) ;
#823 = DIRECTION ( 'NONE',  ( -1.000000000000000000, 0.000000000000000000, 0.000000000000000000 ) ) ;
#824 = CARTESIAN_POINT ( 'NONE',  ( 1.781916968793581681E-16, 4.699999999999999289, 0.000000000000000000 ) ) ;
#825 = SURFACE_SIDE_STYLE ('',( #596 ) ) ;
#826 = CARTESIAN_POINT ( 'NONE',  ( -1.020000000000000018, -7.230772483593523670E-17, 0.2000000000000000111 ) ) ;
#827 = DIRECTION ( 'NONE',  ( -1.000000000000000000, -1.204219087029993407E-16, 0.000000000000000000 ) ) ;
#828 = PRESENTATION_LAYER_ASSIGNMENT (  '', '', ( #223 ) ) ;
#829 = DIRECTION ( 'NONE',  ( 1.000000000000000000, 7.744301232039327775E-17, -0.000000000000000000 ) ) ;
#830 = PLANE ( 'NONE',  #805 ) ;
#831 = CARTESIAN_POINT ( 'NONE',  ( -1.020000000000000018, 0.5000000000000005551, -0.2000000000000000111 ) ) ;
#832 = PRODUCT_DEFINITION_SHAPE ( 'NONE', 'NONE',  #294 ) ;
#833 = CARTESIAN_POINT ( 'NONE',  ( 1.449999999999999956, 2.549999999999999822, -0.3840572873934319231 ) ) ;
#834 = ORIENTED_EDGE ( 'NONE', *, *, #42, .T. ) ;
#835 = VERTEX_POINT ( 'NONE', #862 ) ;
#836 = EDGE_CURVE ( 'NONE', #807, #510, #678, .T. ) ;
#837 = CARTESIAN_POINT ( 'NONE',  ( -0.5199999999999999067, 0.000000000000000000, -0.2000000000000000111 ) ) ;
#838 = ORIENTED_EDGE ( 'NONE', *, *, #693, .F. ) ;
#839 = EDGE_CURVE ( 'NONE', #49, #847, #350, .T. ) ;
#840 = ORIENTED_EDGE ( 'NONE', *, *, #766, .T. ) ;
#841 = DIRECTION ( 'NONE',  ( 1.258118561928571626E-16, -1.000000000000000000, -0.000000000000000000 ) ) ;
#842 = ORIENTED_EDGE ( 'NONE', *, *, #1016, .T. ) ;
#843 = ORIENTED_EDGE ( 'NONE', *, *, #503, .F. ) ;
#844 = ADVANCED_FACE ( 'NONE', ( #341 ), #681, .F. ) ;
#845 = CARTESIAN_POINT ( 'NONE',  ( 1.020000000000000018, 1.399999999999998579, 0.2000000000000000111 ) ) ;
#846 = ORIENTED_EDGE ( 'NONE', *, *, #1007, .T. ) ;
#847 = VERTEX_POINT ( 'NONE', #256 ) ;
#848 = CARTESIAN_POINT ( 'NONE',  ( 0.000000000000000000, 0.000000000000000000, 0.2000000000000000111 ) ) ;
#849 = AXIS2_PLACEMENT_3D ( 'NONE', #182, #658, #190 ) ;
#850 = EDGE_LOOP ( 'NONE', ( #460, #895, #181, #46 ) ) ;
#851 = EDGE_CURVE ( 'NONE', #800, #446, #344, .T. ) ;
#852 = VERTEX_POINT ( 'NONE', #398 ) ;
#853 = DIRECTION ( 'NONE',  ( 1.000000000000000000, 1.446154496718704241E-16, -0.000000000000000000 ) ) ;
#854 = ORIENTED_EDGE ( 'NONE', *, *, #879, .T. ) ;
#855 = DIRECTION ( 'NONE',  ( -1.000000000000000000, -1.204219087029993407E-16, 0.000000000000000000 ) ) ;
#856 = ADVANCED_FACE ( 'NONE', ( #689 ), #245, .F. ) ;
#857 = ORIENTED_EDGE ( 'NONE', *, *, #753, .T. ) ;
#858 = CARTESIAN_POINT ( 'NONE',  ( 1.520000000000003570, 0.1498962308951448386, 0.2000000000000000111 ) ) ;
#859 = PRESENTATION_LAYER_ASSIGNMENT (  '', '', ( #263 ) ) ;
#860 = CARTESIAN_POINT ( 'NONE',  ( -1.020000000000000018, 0.5000000000000005551, 0.2000000000000000111 ) ) ;
#861 = ORIENTED_EDGE ( 'NONE', *, *, #349, .F. ) ;
#862 = CARTESIAN_POINT ( 'NONE',  ( -1.449999999999999956, 2.549999999999999822, 0.3840572873839750434 ) ) ;
#863 = ORIENTED_EDGE ( 'NONE', *, *, #319, .T. ) ;
#864 = AXIS2_PLACEMENT_3D ( 'NONE', #262, #871, #328 ) ;
#865 = FILL_AREA_STYLE_COLOUR ( '', #628 ) ;
#866 = ADVANCED_FACE ( 'NONE', ( #17 ), #964, .F. ) ;
#867 = DIRECTION ( 'NONE',  ( -1.204219087029993407E-16, 1.000000000000000000, -0.000000000000000000 ) ) ;
#868 = ORIENTED_EDGE ( 'NONE', *, *, #279, .T. ) ;
#869 = VERTEX_POINT ( 'NONE', #776 ) ;
#870 = ORIENTED_EDGE ( 'NONE', *, *, #540, .T. ) ;
#871 = DIRECTION ( 'NONE',  ( 1.224646799147353207E-16, 1.474743050403429429E-32, 1.000000000000000000 ) ) ;
#872 = ORIENTED_EDGE ( 'NONE', *, *, #839, .F. ) ;
#873 = PLANE ( 'NONE',  #195 ) ;
#874 = ORIENTED_EDGE ( 'NONE', *, *, #949, .F. ) ;
#875 = VERTEX_POINT ( 'NONE', #318 ) ;
#876 = CARTESIAN_POINT ( 'NONE',  ( 1.781916968793581681E-16, 4.699999999999999289, 0.000000000000000000 ) ) ;
#877 = AXIS2_PLACEMENT_3D ( 'NONE', #824, #160, #494 ) ;
#878 = ORIENTED_EDGE ( 'NONE', *, *, #370, .F. ) ;
#879 = EDGE_CURVE ( 'NONE', #57, #166, #20, .T. ) ;
#880 = CARTESIAN_POINT ( 'NONE',  ( -1.520000000000000240, 0.5000000000000004441, 0.2000000000000000111 ) ) ;
#881 = DIRECTION ( 'NONE',  ( 1.000000000000000000, 0.000000000000000000, 0.000000000000000000 ) ) ;
#882 = VERTEX_POINT ( 'NONE', #976 ) ;
#883 = EDGE_LOOP ( 'NONE', ( #161, #777, #878, #840 ) ) ;
#884 = CARTESIAN_POINT ( 'NONE',  ( -0.5199999999999999067, 0.000000000000000000, 0.2000000000000000111 ) ) ;
#885 = CARTESIAN_POINT ( 'NONE',  ( 0.5200000000000001288, 1.273632671113247474E-16, -0.2000000000000000111 ) ) ;
#886 = AXIS2_PLACEMENT_3D ( 'NONE', #739, #504, #602 ) ;
#887 = VECTOR ( 'NONE', #922, 1000.000000000000000 ) ;
#888 = DIRECTION ( 'NONE',  ( -0.000000000000000000, -1.000000000000000000, -0.000000000000000000 ) ) ;
#889 = PRODUCT_DEFINITION_CONTEXT ( 'detailed design', #788, 'design' ) ;
#890 = ORIENTED_EDGE ( 'NONE', *, *, #425, .F. ) ;
#891 = CARTESIAN_POINT ( 'NONE',  ( -1.449999999999999956, 2.549999999999999822, -0.3840572873934285925 ) ) ;
#892 = EDGE_CURVE ( 'NONE', #464, #970, #8, .T. ) ;
#893 = VECTOR ( 'NONE', #653, 1000.000000000000000 ) ;
#894 =( NAMED_UNIT ( * ) PLANE_ANGLE_UNIT ( ) SI_UNIT ( $, .RADIAN. ) );
#895 = ORIENTED_EDGE ( 'NONE', *, *, #795, .T. ) ;
#896 = PLANE ( 'NONE',  #849 ) ;
#897 = CARTESIAN_POINT ( 'NONE',  ( 1.450000000000000178, 2.600000000000000089, 0.000000000000000000 ) ) ;
#898 = EDGE_LOOP ( 'NONE', ( #164, #448, #493, #40 ) ) ;
#899 = LINE ( 'NONE', #124, #576 ) ;
#900 = LINE ( 'NONE', #168, #209 ) ;
#901 = ORIENTED_EDGE ( 'NONE', *, *, #945, .T. ) ;
#902 =( LENGTH_UNIT ( ) NAMED_UNIT ( * ) SI_UNIT ( .MILLI., .METRE. ) );
#903 = VERTEX_POINT ( 'NONE', #649 ) ;
#904 = VECTOR ( 'NONE', #888, 1000.000000000000000 ) ;
#905 = DIRECTION ( 'NONE',  ( -0.000000000000000000, -0.000000000000000000, -1.000000000000000000 ) ) ;
#906 = ORIENTED_EDGE ( 'NONE', *, *, #737, .F. ) ;
#907 = VERTEX_POINT ( 'NONE', #714 ) ;
#908 = DIRECTION ( 'NONE',  ( -0.000000000000000000, 0.000000000000000000, -1.000000000000000000 ) ) ;
#909 = VECTOR ( 'NONE', #853, 1000.000000000000000 ) ;
#910 = STYLED_ITEM ( 'NONE', ( #997 ), #433 ) ;
#911 =( GEOMETRIC_REPRESENTATION_CONTEXT ( 3 ) GLOBAL_UNCERTAINTY_ASSIGNED_CONTEXT ( ( #324 ) ) GLOBAL_UNIT_ASSIGNED_CONTEXT ( ( #968, #280, #583 ) ) REPRESENTATION_CONTEXT ( 'NONE', 'WORKASPACE' ) );
#912 = ORIENTED_EDGE ( 'NONE', *, *, #892, .T. ) ;
#913 = EDGE_LOOP ( 'NONE', ( #185, #874, #456, #497 ) ) ;
#914 = CARTESIAN_POINT ( 'NONE',  ( 0.5200000000000001288, 1.273632671113247474E-16, 0.2000000000000000111 ) ) ;
#915 = LINE ( 'NONE', #13, #220 ) ;
#916 = DIRECTION ( 'NONE',  ( 0.000000000000000000, 0.000000000000000000, 1.000000000000000000 ) ) ;
#917 = ORIENTED_EDGE ( 'NONE', *, *, #306, .T. ) ;
#918 = CARTESIAN_POINT ( 'NONE',  ( 1.520000000000003348, -27.29999999999999716, -0.2000000000000000111 ) ) ;
#919 = ORIENTED_EDGE ( 'NONE', *, *, #949, .T. ) ;
#920 = VECTOR ( 'NONE', #801, 1000.000000000000000 ) ;
#921 = CIRCLE ( 'NONE', #647, 1.600000000000000311 ) ;
#922 = DIRECTION ( 'NONE',  ( 7.744301232039326542E-17, -1.000000000000000000, 0.000000000000000000 ) ) ;
#923 = ORIENTED_EDGE ( 'NONE', *, *, #45, .T. ) ;
#924 = VECTOR ( 'NONE', #589, 1000.000000000000000 ) ;
#925 = PRESENTATION_LAYER_ASSIGNMENT (  '', '', ( #634 ) ) ;
#926 = CARTESIAN_POINT ( 'NONE',  ( -1.519999999999996687, -28.80000000000000071, 0.2000000000000000111 ) ) ;
#927 = LINE ( 'NONE', #19, #944 ) ;
#928 = ADVANCED_FACE ( 'NONE', ( #682 ), #687, .T. ) ;
#929 = DIRECTION ( 'NONE',  ( 1.000000000000000000, 0.000000000000000000, -0.000000000000000000 ) ) ;
#930 = ORIENTED_EDGE ( 'NONE', *, *, #12, .F. ) ;
#931 = MECHANICAL_DESIGN_GEOMETRIC_PRESENTATION_REPRESENTATION (  '', ( #223 ), #911 ) ;
#932 = VECTOR ( 'NONE', #365, 1000.000000000000000 ) ;
#933 = VERTEX_POINT ( 'NONE', #147 ) ;
#934 = VERTEX_POINT ( 'NONE', #1017 ) ;
#935 = DIRECTION ( 'NONE',  ( -1.000000000000000000, -0.000000000000000000, -0.000000000000000000 ) ) ;
#936 = VERTEX_POINT ( 'NONE', #99 ) ;
#937 = LINE ( 'NONE', #243, #578 ) ;
#938 = DIRECTION ( 'NONE',  ( 1.000000000000000000, -2.547265342226495440E-16, 0.000000000000000000 ) ) ;
#939 = ORIENTED_EDGE ( 'NONE', *, *, #516, .T. ) ;
#940 = ADVANCED_FACE ( 'NONE', ( #27 ), #690, .T. ) ;
#941 = CARTESIAN_POINT ( 'NONE',  ( 1.449999999999999956, 1.399999999999999245, 0.000000000000000000 ) ) ;
#942 = CARTESIAN_POINT ( 'NONE',  ( -1.519999999999996687, -28.80000000000000071, 0.2000000000000000111 ) ) ;
#943 = VERTEX_POINT ( 'NONE', #140 ) ;
#944 = VECTOR ( 'NONE', #660, 1000.000000000000000 ) ;
#945 = EDGE_CURVE ( 'NONE', #405, #963, #353, .T. ) ;
#946 = ORIENTED_EDGE ( 'NONE', *, *, #836, .T. ) ;
#947 = VECTOR ( 'NONE', #713, 1000.000000000000000 ) ;
#948 = CARTESIAN_POINT ( 'NONE',  ( -0.5199999999999999067, 0.000000000000000000, 0.2000000000000000111 ) ) ;
#949 = EDGE_CURVE ( 'NONE', #875, #113, #21, .T. ) ;
#950 = ADVANCED_FACE ( 'NONE', ( #683 ), #969, .F. ) ;
#951 = LINE ( 'NONE', #277, #247 ) ;
#952 = LINE ( 'NONE', #108, #947 ) ;
#953 = UNCERTAINTY_MEASURE_WITH_UNIT (LENGTH_MEASURE( 1.000000000000000082E-05 ), #358, 'distance_accuracy_value', 'NONE');
#954 = ORIENTED_EDGE ( 'NONE', *, *, #482, .F. ) ;
#955 = DIRECTION ( 'NONE',  ( -1.000000000000000000, 0.000000000000000000, 0.000000000000000000 ) ) ;
#956 = CARTESIAN_POINT ( 'NONE',  ( 1.020000000000000018, 0.5000000000000007772, 0.2000000000000000111 ) ) ;
#957 = EDGE_CURVE ( 'NONE', #903, #467, #11, .T. ) ;
#958 = DIRECTION ( 'NONE',  ( 1.000000000000000000, 0.000000000000000000, 0.000000000000000000 ) ) ;
#959 = CARTESIAN_POINT ( 'NONE',  ( 5.755839955992559655E-16, 1.399999999999999023, 0.000000000000000000 ) ) ;
#960 = CARTESIAN_POINT ( 'NONE',  ( 1.450000000000000400, 6.099999999999999645, 0.000000000000000000 ) ) ;
#961 = CARTESIAN_POINT ( 'NONE',  ( -1.449999999999999956, 2.550000000001612310, 0.2539593146660808487 ) ) ;
#962 = CARTESIAN_POINT ( 'NONE',  ( 1.600000000000000755, 2.550000000000000266, 0.000000000000000000 ) ) ;
#963 = VERTEX_POINT ( 'NONE', #831 ) ;
#964 = PLANE ( 'NONE',  #22 ) ;
#965 = AXIS2_PLACEMENT_3D ( 'NONE', #64, #478, #309 ) ;
#966 = ORIENTED_EDGE ( 'NONE', *, *, #189, .F. ) ;
#967 = ORIENTED_EDGE ( 'NONE', *, *, #172, .T. ) ;
#968 =( LENGTH_UNIT ( ) NAMED_UNIT ( * ) SI_UNIT ( .MILLI., .METRE. ) );
#969 = PLANE ( 'NONE',  #207 ) ;
#970 = VERTEX_POINT ( 'NONE', #1005 ) ;
#971 = DIRECTION ( 'NONE',  ( -1.000000000000000000, -7.744301232039327775E-17, 0.000000000000000000 ) ) ;
#972 = CARTESIAN_POINT ( 'NONE',  ( -1.020000000000000018, 0.5000000000000005551, 0.2000000000000000111 ) ) ;
#973 = ORIENTED_EDGE ( 'NONE', *, *, #993, .F. ) ;
#974 = ADVANCED_FACE ( 'NONE', ( #699 ), #31, .T. ) ;
#975 = DIRECTION ( 'NONE',  ( -1.000000000000000000, -1.204669080539449344E-16, 0.000000000000000000 ) ) ;
#976 = CARTESIAN_POINT ( 'NONE',  ( 1.020000000000000018, 0.5000000000000007772, 0.2000000000000000111 ) ) ;
#977 = EDGE_CURVE ( 'NONE', #810, #203, #363, .T. ) ;
#978 = ORIENTED_EDGE ( 'NONE', *, *, #471, .T. ) ;
#979 = EDGE_CURVE ( 'NONE', #970, #405, #701, .T. ) ;
#980 = CARTESIAN_POINT ( 'NONE',  ( 0.000000000000000000, 0.000000000000000000, 0.2000000000000000111 ) ) ;
#981 = CARTESIAN_POINT ( 'NONE',  ( 0.5200000000000000178, 1.399999999999998579, 0.2000000000000000111 ) ) ;
#982 = VECTOR ( 'NONE', #304, 1000.000000000000000 ) ;
#983 = VECTOR ( 'NONE', #300, 1000.000000000000000 ) ;
#984 = CARTESIAN_POINT ( 'NONE',  ( 0.5200000000000000178, 1.399999999999998579, 0.2000000000000000111 ) ) ;
#985 = FACE_OUTER_BOUND ( 'NONE', #47, .T. ) ;
#986 =( NAMED_UNIT ( * ) SI_UNIT ( $, .STERADIAN. ) SOLID_ANGLE_UNIT ( ) );
#987 = LINE ( 'NONE', #1022, #639 ) ;
#988 = CARTESIAN_POINT ( 'NONE',  ( -1.449999999999999956, 10.00000000000000000, -0.6763874629234343239 ) ) ;
#989 = FACE_OUTER_BOUND ( 'NONE', #146, .T. ) ;
#990 = LINE ( 'NONE', #691, #1001 ) ;
#991 = EDGE_CURVE ( 'NONE', #847, #203, #371, .T. ) ;
#992 = DIRECTION ( 'NONE',  ( -1.204219087029993407E-16, 1.000000000000000000, -0.000000000000000000 ) ) ;
#993 = EDGE_CURVE ( 'NONE', #127, #522, #706, .T. ) ;
#994 = DIRECTION ( 'NONE',  ( -0.000000000000000000, -0.000000000000000000, -1.000000000000000000 ) ) ;
#995 = DIRECTION ( 'NONE',  ( -1.000000000000000000, 0.000000000000000000, 0.000000000000000000 ) ) ;
#996 = AXIS2_PLACEMENT_3D ( 'NONE', #267, #332, #418 ) ;
#997 = PRESENTATION_STYLE_ASSIGNMENT (( #741 ) ) ;
#998 = DIRECTION ( 'NONE',  ( 0.000000000000000000, -1.000000000000000000, 0.000000000000000000 ) ) ;
#999 = AXIS2_PLACEMENT_3D ( 'NONE', #543, #305, #955 ) ;
#1000 = AXIS2_PLACEMENT_3D ( 'NONE', #322, #26, #908 ) ;
#1001 = VECTOR ( 'NONE', #557, 1000.000000000000000 ) ;
#1002 = CARTESIAN_POINT ( 'NONE',  ( -1.020000000000000018, 1.399999999999998579, 0.2000000000000000111 ) ) ;
#1003 = VECTOR ( 'NONE', #486, 1000.000000000000000 ) ;
#1004 = DIRECTION ( 'NONE',  ( 1.000000000000000000, -0.000000000000000000, -0.000000000000000000 ) ) ;
#1005 = CARTESIAN_POINT ( 'NONE',  ( -0.5200000000000000178, 1.399999999999998579, -0.2000000000000000111 ) ) ;
#1006 = AXIS2_PLACEMENT_3D ( 'NONE', #232, #469, #671 ) ;
#1007 = EDGE_CURVE ( 'NONE', #442, #127, #186, .T. ) ;
#1008 = VECTOR ( 'NONE', #527, 1000.000000000000000 ) ;
#1009 = DIRECTION ( 'NONE',  ( 0.000000000000000000, -0.000000000000000000, -1.000000000000000000 ) ) ;
#1010 = VECTOR ( 'NONE', #686, 1000.000000000000000 ) ;
#1011 = MANIFOLD_SOLID_BREP ( 'Boss-Extrude1[2]', #454 ) ;
#1012 = LINE ( 'NONE', #484, #317 ) ;
#1013 = DIRECTION ( 'NONE',  ( -1.000000000000000000, -2.168404344971007882E-16, -0.000000000000000000 ) ) ;
#1014 = EDGE_CURVE ( 'NONE', #852, #936, #36, .T. ) ;
#1015 = CARTESIAN_POINT ( 'NONE',  ( -0.5200000000000000178, 1.399999999999998579, 0.2000000000000000111 ) ) ;
#1016 = EDGE_CURVE ( 'NONE', #467, #264, #374, .T. ) ;
#1017 = CARTESIAN_POINT ( 'NONE',  ( -1.019999999999996687, -28.80000000000000071, -0.2000000000000000111 ) ) ;
#1018 = MECHANICAL_DESIGN_GEOMETRIC_PRESENTATION_REPRESENTATION (  '', ( #634 ), #787 ) ;
#1019 = CARTESIAN_POINT ( 'NONE',  ( -1.520000000000000240, 0.5000000000000004441, -0.2000000000000000111 ) ) ;
#1020 = DIRECTION ( 'NONE',  ( -1.204219087029993407E-16, 1.000000000000000000, 0.000000000000000000 ) ) ;
#1021 = ADVANCED_FACE ( 'NONE', ( #392 ), #722, .F. ) ;
#1022 = CARTESIAN_POINT ( 'NONE',  ( 1.020000000000003348, -27.29999999999999716, -0.2000000000000000111 ) ) ;
#1023 = CARTESIAN_POINT ( 'NONE',  ( 1.020000000000000018, 1.399999999999998579, 0.2000000000000000111 ) ) ;
#1024 = EDGE_CURVE ( 'NONE', #464, #584, #386, .T. ) ;
ENDSEC;
END-ISO-10303-21;
